<?xml version="1.0" encoding="UTF-8"?>
<!DOCTYPE svg PUBLIC "-//W3C//DTD SVG 1.1//EN" "http://www.w3.org/Graphics/SVG/1.1/DTD/svg11.dtd">
<!-- Creator: CorelDRAW X8 -->
<svg xmlns="http://www.w3.org/2000/svg" xml:space="preserve" width="176.605mm" height="29.1203mm" version="1.1" style="shape-rendering:geometricPrecision; text-rendering:geometricPrecision; image-rendering:optimizeQuality; fill-rule:evenodd; clip-rule:evenodd"
viewBox="0 0 17355 2862"
 xmlns:xlink="http://www.w3.org/1999/xlink">
 <defs>
  <style type="text/css">
   <![CDATA[
    .str0 {stroke:#2B2A29;stroke-width:73.7046}
    .str1 {stroke:#2B2A29;stroke-width:39.3091}
    .fil0 {fill:none}
    .fil1 {fill:#2B2A29;fill-rule:nonzero}
   ]]>
  </style>
 </defs>
 <g id="Слой_x0020_1">
  <metadata id="CorelCorpID_0Corel-Layer"/>
  <rect class="fil0 str0" x="512" y="709" width="16641" height="1508"/>
  <line class="fil0 str1" x1="5849" y1="735" x2="5849" y2= "2243" />
  <line class="fil0 str1" x1="960" y1="735" x2="960" y2= "2243" />
  <polygon class="fil1" points="2119,7 2470,7 2470,454 2411,454 2411,60 2178,60 2178,454 2119,454 "/>
  <path id="1" class="fil1" d="M2540 292c0,-59 16,-104 50,-133 27,-23 61,-35 101,-35 45,0 81,14 110,43 28,29 42,70 42,121 0,41 -6,74 -19,98 -12,24 -30,42 -54,55 -24,14 -50,20 -79,20 -45,0 -81,-14 -109,-43 -28,-29 -42,-71 -42,-126zm56 0c0,42 9,73 27,93 18,21 41,31 68,31 28,0 50,-10 69,-31 18,-20 27,-52 27,-94 0,-40 -9,-71 -28,-91 -18,-21 -40,-31 -68,-31 -27,0 -50,10 -68,31 -18,20 -27,51 -27,92z"/>
  <path id="2" class="fil1" d="M2907 578l0 -448 50 0 0 43c12,-16 25,-29 40,-37 15,-8 33,-12 54,-12 28,0 52,7 73,21 21,14 37,34 48,60 11,26 16,54 16,85 0,33 -6,63 -18,89 -12,27 -29,47 -51,61 -23,14 -47,21 -72,21 -18,0 -35,-4 -49,-11 -15,-8 -26,-18 -36,-30l0 158 -55 0zm50 -284c0,42 9,73 25,92 17,20 38,30 62,30 24,0 45,-10 62,-31 17,-20 26,-52 26,-95 0,-41 -8,-72 -25,-93 -17,-20 -38,-30 -61,-30 -23,0 -44,11 -62,32 -18,22 -27,54 -27,95z"/>
  <path id="3" class="fil1" d="M3503 130l0 324 -55 0 0 -126 -32 0c-19,0 -33,3 -43,8 -9,5 -23,21 -41,48l-49 70 -68 0 60 -87c18,-26 36,-41 54,-45 -32,-4 -55,-15 -70,-34 -15,-18 -23,-39 -23,-63 0,-28 10,-51 30,-68 20,-18 49,-27 86,-27l151 0zm-55 46l-78 0c-33,0 -54,5 -64,15 -9,10 -14,22 -14,36 0,19 7,34 21,43 14,9 39,13 74,13l61 0 0 -107z"/>
  <path id="4" class="fil1" d="M3628 130l226 0 0 279 35 0 0 137 -45 0 0 -92 -255 0 0 92 -45 0 0 -137 29 0c39,-52 57,-145 55,-279zm46 46c-4,105 -20,183 -49,233l174 0 0 -233 -125 0z"/>
  <path id="5" class="fil1" d="M3929 292c0,-59 16,-104 50,-133 28,-23 62,-35 102,-35 44,0 80,14 109,43 28,29 42,70 42,121 0,41 -6,74 -19,98 -12,24 -30,42 -54,55 -24,14 -50,20 -78,20 -46,0 -82,-14 -110,-43 -28,-29 -42,-71 -42,-126zm56 0c0,42 9,73 27,93 18,21 41,31 69,31 27,0 50,-10 68,-31 18,-20 27,-52 27,-94 0,-40 -9,-71 -27,-91 -19,-21 -41,-31 -68,-31 -28,0 -51,10 -69,31 -18,20 -27,51 -27,92z"/>
  <path id="6" class="fil1" d="M4296 130l55 0 0 140c17,0 30,-3 37,-10 7,-7 17,-26 31,-58 10,-26 19,-43 26,-51 7,-8 14,-14 23,-16 9,-3 23,-5 42,-5l11 0 0 46 -15 -1c-15,0 -24,3 -28,7 -4,4 -11,18 -19,40 -9,21 -16,36 -23,44 -7,8 -18,15 -32,22 23,6 47,28 69,66l61 100 -61 0 -59 -100c-12,-20 -22,-33 -31,-40 -9,-6 -20,-9 -32,-9l0 149 -55 0 0 -324z"/>
  <path class="fil1" d="M10022 454l0 -447 88 0 106 317c10,29 17,51 21,66 5,-16 13,-40 24,-72l108 -311 79 0 0 447 -57 0 0 -374 -130 374 -54 0 -129 -380 0 380 -56 0z"/>
  <path id="1" class="fil1" d="M10754 414c-20,17 -40,29 -58,36 -19,8 -39,11 -61,11 -36,0 -63,-8 -82,-26 -19,-17 -29,-39 -29,-66 0,-16 4,-30 11,-44 7,-13 17,-23 28,-31 12,-8 25,-14 40,-18 11,-3 27,-5 49,-8 44,-5 77,-12 98,-19 0,-8 0,-12 0,-14 0,-23 -5,-38 -16,-47 -14,-13 -35,-19 -62,-19 -26,0 -45,5 -57,14 -13,9 -22,25 -28,48l-53 -8c4,-23 12,-41 24,-55 11,-14 27,-25 48,-33 21,-8 46,-11 74,-11 28,0 50,3 68,9 17,7 30,15 38,25 8,10 14,22 17,37 2,10 3,27 3,51l0 73c0,50 1,83 3,96 2,14 7,27 13,39l-57 0c-5,-11 -9,-25 -11,-40zm-4 -122c-20,8 -50,15 -90,21 -22,3 -39,7 -48,11 -9,4 -16,10 -22,17 -5,8 -7,17 -7,26 0,15 5,27 16,37 12,9 28,14 49,14 21,0 40,-4 57,-14 16,-9 28,-21 36,-37 6,-13 9,-31 9,-55l0 -20z"/>
  <polygon id="2" class="fil1" points="10890,130 10945,130 10945,265 11097,265 11097,130 11152,130 11152,454 11097,454 11097,311 10945,311 10945,454 10890,454 "/>
  <polygon id="3" class="fil1" points="11206,130 11468,130 11468,176 11364,176 11364,454 11309,454 11309,176 11206,176 "/>
  <polygon id="4" class="fil1" points="11520,130 11575,130 11575,377 11728,130 11787,130 11787,454 11732,454 11732,209 11579,454 11520,454 "/>
  <path id="5" class="fil1" d="M12080 336l54 7c-6,37 -21,66 -45,87 -24,21 -54,31 -89,31 -45,0 -80,-14 -107,-43 -27,-29 -40,-71 -40,-124 0,-35 6,-66 17,-92 12,-26 29,-46 53,-59 24,-13 49,-19 77,-19 35,0 64,8 86,26 23,18 37,43 43,76l-53 8c-5,-22 -14,-38 -27,-49 -13,-11 -28,-17 -47,-17 -27,0 -50,10 -67,30 -18,20 -26,51 -26,94 0,44 8,75 25,95 17,19 38,29 65,29 22,0 40,-6 54,-20 14,-13 24,-33 27,-60z"/>
  <path id="6" class="fil1" d="M12393 336l53 7c-6,37 -21,66 -45,87 -24,21 -54,31 -89,31 -45,0 -80,-14 -107,-43 -27,-29 -40,-71 -40,-124 0,-35 6,-66 17,-92 12,-26 29,-46 53,-59 24,-13 49,-19 77,-19 35,0 64,8 86,26 23,18 37,43 43,76l-53 8c-5,-22 -14,-38 -27,-49 -13,-11 -28,-17 -47,-17 -27,0 -50,10 -67,30 -17,20 -26,51 -26,94 0,44 8,75 25,95 17,19 38,29 65,29 22,0 40,-6 54,-20 14,-13 24,-33 28,-60z"/>
  <path id="7" class="fil1" d="M12705 414c-21,17 -41,29 -59,36 -19,8 -39,11 -61,11 -36,0 -63,-8 -82,-26 -19,-17 -29,-39 -29,-66 0,-16 4,-30 11,-44 7,-13 17,-23 28,-31 12,-8 25,-14 40,-18 11,-3 27,-5 49,-8 44,-5 77,-12 98,-19 0,-8 0,-12 0,-14 0,-23 -5,-38 -15,-47 -14,-13 -35,-19 -63,-19 -26,0 -45,5 -57,14 -13,9 -22,25 -28,48l-53 -8c4,-23 13,-41 24,-55 11,-14 27,-25 48,-33 22,-8 46,-11 74,-11 28,0 50,3 68,9 17,7 30,15 38,25 8,10 14,22 17,37 2,10 3,27 3,51l0 73c0,50 1,83 3,96 2,14 7,27 14,39l-58 0c-5,-11 -9,-25 -10,-40zm-5 -122c-20,8 -50,15 -90,21 -22,3 -38,7 -48,11 -9,4 -16,10 -21,17 -5,8 -8,17 -8,26 0,15 5,27 17,37 11,9 27,14 48,14 21,0 40,-4 57,-14 16,-9 28,-21 36,-37 6,-13 9,-31 9,-55l0 -20z"/>
  <path class="fil1" d="M45 328l56 -14c4,22 15,43 34,65 19,21 43,32 74,32 31,0 56,-8 74,-24 18,-16 27,-35 27,-58 0,-25 -10,-44 -29,-59 -19,-14 -45,-22 -77,-22l-28 0 0 -51c27,0 47,-2 62,-5 14,-3 27,-11 38,-24 11,-13 16,-28 16,-44 0,-19 -7,-36 -22,-51 -15,-14 -36,-21 -61,-21 -23,0 -42,5 -58,17 -15,11 -26,26 -32,45 -7,18 -10,32 -10,41l-56 -13c14,-95 66,-142 156,-142 44,0 78,12 104,36 25,25 38,53 38,85 0,42 -20,74 -59,97 23,6 42,19 57,39 15,19 23,42 23,69 0,39 -15,71 -44,97 -30,26 -70,39 -119,39 -84,0 -139,-45 -164,-134z"/>
  <polygon id="1" class="fil1" points="439,130 494,130 494,265 646,265 646,130 701,130 701,454 646,454 646,311 494,311 494,454 439,454 "/>
  <path id="2" class="fil1" d="M995 414c-20,17 -40,29 -59,36 -19,8 -39,11 -60,11 -36,0 -63,-8 -82,-26 -20,-17 -29,-39 -29,-66 0,-16 3,-30 11,-44 7,-13 16,-23 28,-31 12,-8 25,-14 40,-18 10,-3 27,-5 48,-8 45,-5 78,-12 98,-19 1,-8 1,-12 1,-14 0,-23 -5,-38 -16,-47 -14,-13 -35,-19 -62,-19 -26,0 -46,5 -58,14 -12,9 -21,25 -27,48l-54 -8c5,-23 13,-41 24,-55 12,-14 28,-25 49,-33 21,-8 46,-11 74,-11 27,0 50,3 67,9 17,7 30,15 38,25 9,10 14,22 18,37 1,10 2,27 2,51l0 73c0,50 1,83 4,96 2,14 6,27 13,39l-57 0c-6,-11 -9,-25 -11,-40zm-4 -122c-20,8 -50,15 -90,21 -23,3 -39,7 -48,11 -10,4 -17,10 -22,17 -5,8 -8,17 -8,26 0,15 6,27 17,37 11,9 27,14 49,14 21,0 40,-4 56,-14 17,-9 29,-21 37,-37 5,-13 8,-31 8,-55l1 -20z"/>
  <path id="3" class="fil1" d="M1130 130l55 0 0 140c17,0 30,-3 37,-10 7,-7 17,-26 31,-58 11,-26 19,-43 26,-51 7,-8 14,-14 23,-16 9,-3 23,-5 42,-5l11 0 0 46 -15 -1c-14,0 -24,3 -28,7 -4,4 -11,18 -19,40 -9,21 -16,36 -23,44 -7,8 -18,15 -32,22 23,6 47,28 70,66l60 100 -61 0 -59 -100c-12,-20 -22,-33 -31,-40 -9,-6 -20,-9 -32,-9l0 149 -55 0 0 -324z"/>
  <path class="fil1" d="M224 2593l-42 4c-4,-17 -10,-29 -17,-37 -11,-12 -26,-18 -43,-18 -13,0 -25,4 -36,11 -13,10 -24,24 -32,43 -7,19 -11,46 -12,80 10,-15 23,-27 38,-34 15,-8 30,-12 47,-12 28,0 52,11 73,32 20,21 30,48 30,81 0,22 -5,42 -15,61 -9,18 -22,33 -38,43 -17,10 -35,15 -56,15 -36,0 -65,-13 -87,-40 -23,-26 -34,-69 -34,-129 0,-67 12,-116 37,-146 22,-27 51,-40 88,-40 27,0 50,8 67,23 18,15 28,36 32,63zm-175 150c0,15 3,29 9,43 7,13 15,23 26,30 12,7 23,11 36,11 18,0 34,-7 47,-22 12,-15 19,-34 19,-59 0,-24 -7,-43 -19,-57 -13,-14 -29,-21 -49,-21 -19,0 -35,7 -49,21 -13,14 -20,32 -20,54z"/>
  <path id="1" class="fil1" d="M272 2764l43 -6c5,24 13,42 25,52 11,11 26,16 43,16 20,0 37,-7 51,-21 13,-13 20,-31 20,-51 0,-20 -6,-36 -19,-49 -13,-12 -29,-19 -49,-19 -8,0 -18,2 -30,5l5 -37c3,0 5,0 7,0 18,0 34,-5 49,-14 15,-10 22,-24 22,-44 0,-16 -5,-28 -16,-39 -11,-10 -24,-15 -41,-15 -17,0 -31,5 -42,16 -11,10 -18,26 -21,47l-43 -8c6,-28 17,-51 36,-66 18,-16 41,-24 69,-24 19,0 36,4 52,12 16,8 28,19 37,33 8,14 13,29 13,45 0,15 -5,29 -13,41 -8,12 -20,22 -35,29 20,5 36,15 48,30 11,15 17,33 17,56 0,30 -12,56 -34,77 -22,21 -50,32 -84,32 -30,0 -55,-9 -76,-28 -20,-18 -31,-41 -34,-70z"/>
  <path id="2" class="fil1" d="M1033 2593l-42 4c-4,-17 -9,-29 -16,-37 -12,-12 -26,-18 -43,-18 -14,0 -26,4 -36,11 -14,10 -24,24 -32,43 -8,19 -12,46 -12,80 10,-15 23,-27 38,-34 14,-8 30,-12 46,-12 29,0 53,11 73,32 20,21 30,48 30,81 0,22 -5,42 -14,61 -9,18 -22,33 -39,43 -16,10 -35,15 -56,15 -35,0 -64,-13 -87,-40 -22,-26 -33,-69 -33,-129 0,-67 12,-116 37,-146 22,-27 51,-40 88,-40 27,0 49,8 67,23 17,15 28,36 31,63zm-174 150c0,15 3,29 9,43 6,13 15,23 26,30 11,7 23,11 36,11 18,0 33,-7 46,-22 13,-15 19,-34 19,-59 0,-24 -6,-43 -19,-57 -12,-14 -29,-21 -48,-21 -19,0 -36,7 -49,21 -14,14 -20,32 -20,54z"/>
  <path id="3" class="fil1" d="M1305 2815l0 41 -230 0c0,-10 2,-20 5,-30 6,-15 16,-31 29,-46 13,-15 31,-33 55,-52 38,-31 64,-56 77,-74 13,-18 20,-35 20,-51 0,-17 -6,-32 -18,-43 -12,-12 -28,-18 -48,-18 -20,0 -37,7 -49,19 -13,12 -19,29 -19,51l-44 -5c3,-32 15,-57 34,-74 20,-17 46,-26 79,-26 34,0 60,9 80,28 19,18 29,41 29,69 0,13 -3,27 -9,41 -6,13 -15,27 -28,42 -13,15 -35,35 -66,61 -26,22 -42,36 -49,44 -8,8 -14,15 -18,23l170 0z"/>
  <path id="4" class="fil1" d="M5667 2765l44 -4c4,22 11,38 23,49 12,11 27,17 44,17 21,0 38,-8 52,-23 14,-16 21,-37 21,-62 0,-24 -6,-44 -20,-58 -13,-14 -31,-21 -53,-21 -14,0 -27,3 -38,10 -10,6 -19,14 -25,24l-41 -6 34 -178 172 0 0 41 -138 0 -19 93c21,-14 43,-22 66,-22 30,0 56,11 76,32 21,21 32,48 32,81 0,31 -10,59 -28,82 -22,28 -52,42 -91,42 -32,0 -57,-9 -77,-27 -20,-18 -32,-41 -34,-70z"/>
  <path id="5" class="fil1" d="M6097 2856l-43 0 0 -272c-10,10 -24,20 -40,29 -17,10 -32,18 -45,22l0 -41c23,-11 44,-25 62,-41 18,-16 31,-31 38,-46l28 0 0 349z"/>
  <path id="6" class="fil1" d="M17129 2684c0,-41 4,-74 13,-99 8,-25 21,-44 38,-58 16,-13 37,-20 62,-20 19,0 35,4 49,11 15,8 26,19 35,33 9,14 16,31 22,51 5,21 7,48 7,82 0,41 -4,74 -12,99 -8,25 -21,45 -38,58 -16,14 -37,21 -63,21 -33,0 -59,-12 -78,-36 -23,-29 -35,-76 -35,-142zm44 1c0,57 7,95 20,114 13,18 30,28 49,28 20,0 36,-10 50,-29 13,-18 20,-56 20,-113 0,-58 -7,-96 -20,-114 -13,-19 -30,-29 -50,-29 -20,0 -35,9 -47,25 -15,21 -22,61 -22,118z"/>
  <path class="fil1" d="M3234 1664l-42 0 0 -272c-11,9 -24,19 -41,29 -16,10 -31,17 -45,22l0 -41c24,-11 45,-25 63,-41 18,-16 31,-31 38,-46l27 0 0 349z"/>
  <path id="1" class="fil1" d="M3468 1664l-42 0 0 -272c-11,9 -24,19 -41,29 -16,10 -31,17 -45,22l0 -41c24,-11 45,-25 63,-41 18,-16 30,-31 38,-46l27 0 0 349z"/>
  <path class="fil1" d="M11213 1572l44 -3c4,22 11,38 23,49 12,11 27,16 44,16 21,0 38,-7 53,-23 14,-15 21,-36 21,-61 0,-25 -7,-44 -21,-58 -13,-14 -31,-21 -53,-21 -14,0 -26,3 -37,9 -11,7 -20,15 -26,25l-41 -6 34 -179 172 0 0 41 -138 0 -18 94c20,-15 42,-22 65,-22 30,0 56,11 77,32 20,21 31,48 31,81 0,31 -9,58 -28,81 -22,28 -52,42 -91,42 -31,0 -57,-9 -77,-26 -20,-18 -31,-41 -34,-71z"/>
  <path id="1" class="fil1" d="M11706 1623l0 41 -230 0c0,-11 2,-21 5,-30 6,-16 16,-31 29,-46 13,-15 31,-33 56,-53 37,-31 63,-55 76,-73 14,-18 20,-36 20,-52 0,-17 -6,-31 -18,-43 -12,-11 -28,-17 -47,-17 -21,0 -38,6 -50,18 -12,13 -19,30 -19,51l-43 -4c3,-33 14,-58 33,-75 20,-17 46,-25 80,-25 33,0 59,9 79,27 19,19 29,42 29,69 0,14 -3,28 -9,41 -5,14 -15,28 -28,43 -13,15 -35,35 -66,61 -25,21 -42,36 -49,44 -7,7 -13,15 -18,23l170 0z"/>
  <path class="fil1" d="M781 1664l-42 0 0 -272c-11,9 -24,19 -41,29 -16,10 -31,17 -45,22l0 -41c24,-11 45,-25 63,-41 18,-16 31,-31 38,-46l27 0 0 349z"/>
 </g>
</svg>
