<?xml version="1.0" encoding="UTF-8"?>
<!DOCTYPE svg PUBLIC "-//W3C//DTD SVG 1.1//EN" "http://www.w3.org/Graphics/SVG/1.1/DTD/svg11.dtd">
<!-- Creator: CorelDRAW X8 -->
<svg xmlns="http://www.w3.org/2000/svg" xml:space="preserve" width="175.379mm" height="29.1203mm" version="1.1" style="shape-rendering:geometricPrecision; text-rendering:geometricPrecision; image-rendering:optimizeQuality; fill-rule:evenodd; clip-rule:evenodd"
viewBox="0 0 17202 2856"
 xmlns:xlink="http://www.w3.org/1999/xlink">
 <defs>
  <style type="text/css">
   <![CDATA[
    .str0 {stroke:#2B2A29;stroke-width:73.5644}
    .str1 {stroke:#2B2A29;stroke-width:39.2343}
    .fil0 {fill:none}
    .fil1 {fill:#2B2A29;fill-rule:nonzero}
   ]]>
  </style>
 </defs>
 <g id="Слой_x0020_1">
  <metadata id="CorelCorpID_0Corel-Layer"/>
  <rect class="fil0 str0" x="466" y="708" width="16609" height="1505"/>
  <line class="fil0 str1" x1="5793" y1="734" x2="5793" y2= "2239" />
  <line class="fil0 str1" x1="914" y1="734" x2="914" y2= "2239" />
  <polygon class="fil1" points="2071,7 2421,7 2421,453 2361,453 2361,60 2130,60 2130,453 2071,453 "/>
  <path id="1" class="fil1" d="M2490 292c0,-60 17,-104 50,-133 28,-24 62,-36 102,-36 44,0 81,15 109,44 28,29 42,69 42,120 0,42 -6,74 -19,98 -12,24 -30,42 -54,56 -24,13 -50,19 -78,19 -45,0 -82,-14 -110,-43 -28,-29 -42,-71 -42,-125zm56 0c0,41 9,72 27,93 19,20 41,30 69,30 27,0 50,-10 68,-30 18,-21 27,-53 27,-95 0,-40 -9,-70 -27,-90 -19,-21 -41,-31 -68,-31 -28,0 -50,10 -69,30 -18,21 -27,52 -27,93z"/>
  <path id="2" class="fil1" d="M2857 577l0 -447 50 0 0 43c12,-17 25,-29 40,-37 15,-9 33,-13 54,-13 27,0 52,7 73,22 21,14 37,34 47,59 11,26 17,55 17,85 0,33 -6,63 -18,89 -12,27 -29,47 -52,61 -22,14 -46,21 -71,21 -18,0 -35,-4 -49,-11 -15,-8 -27,-18 -36,-29l0 157 -55 0zm50 -283c0,41 9,72 25,92 17,19 37,29 61,29 25,0 45,-10 63,-30 17,-21 26,-53 26,-96 0,-41 -9,-72 -26,-92 -17,-21 -37,-31 -60,-31 -24,0 -44,11 -62,33 -18,22 -27,53 -27,95z"/>
  <path id="3" class="fil1" d="M3451 130l0 323 -54 0 0 -125 -32 0c-19,0 -33,2 -43,7 -9,5 -23,21 -41,48l-48 70 -68 0 59 -86c18,-27 36,-42 54,-45 -31,-5 -55,-16 -70,-34 -15,-18 -22,-39 -22,-63 0,-28 9,-51 29,-69 20,-17 49,-26 86,-26l150 0zm-54 46l-78 0c-33,0 -54,5 -63,15 -10,10 -14,22 -14,36 0,19 7,33 20,42 14,9 39,14 74,14l61 0 0 -107z"/>
  <path id="4" class="fil1" d="M3577 130l225 0 0 279 35 0 0 136 -45 0 0 -92 -254 0 0 92 -45 0 0 -136 29 0c38,-53 57,-146 55,-279zm45 46c-4,105 -20,182 -48,233l174 0 0 -233 -126 0z"/>
  <path id="5" class="fil1" d="M3877 292c0,-60 16,-104 50,-133 28,-24 61,-36 101,-36 45,0 81,15 109,44 28,29 43,69 43,120 0,42 -7,74 -19,98 -13,24 -31,42 -55,56 -23,13 -49,19 -78,19 -45,0 -81,-14 -109,-43 -28,-29 -42,-71 -42,-125zm56 0c0,41 9,72 27,93 18,20 41,30 68,30 28,0 50,-10 68,-30 18,-21 28,-53 28,-95 0,-40 -10,-70 -28,-90 -18,-21 -41,-31 -68,-31 -27,0 -50,10 -68,30 -18,21 -27,52 -27,93z"/>
  <path id="6" class="fil1" d="M4243 130l55 0 0 140c17,0 30,-4 37,-10 7,-7 17,-26 31,-59 11,-25 19,-42 26,-50 7,-8 14,-14 23,-17 9,-2 23,-4 42,-4l11 0 0 45 -15 0c-15,0 -24,2 -28,6 -4,5 -11,18 -19,40 -9,21 -16,36 -23,44 -7,8 -18,16 -32,22 23,7 47,29 69,66l61 100 -61 0 -59 -99c-12,-21 -22,-34 -31,-40 -9,-7 -20,-10 -32,-10l0 149 -55 0 0 -323z"/>
  <path class="fil1" d="M9958 453l0 -446 89 0 105 316c10,30 17,52 21,66 5,-16 13,-40 24,-71l108 -311 79 0 0 446 -57 0 0 -373 -130 373 -53 0 -129 -380 0 380 -57 0z"/>
  <path id="1" class="fil1" d="M10689 413c-20,17 -40,29 -58,37 -19,7 -39,10 -61,10 -35,0 -63,-8 -82,-26 -19,-17 -28,-39 -28,-66 0,-16 3,-30 10,-43 8,-13 17,-24 29,-32 11,-7 25,-13 39,-17 11,-3 27,-6 49,-9 44,-5 77,-11 98,-18 0,-8 0,-13 0,-15 0,-22 -5,-38 -15,-47 -14,-12 -35,-18 -63,-18 -26,0 -45,4 -57,13 -13,9 -22,25 -27,48l-54 -7c5,-23 13,-42 24,-56 11,-14 27,-25 49,-32 21,-8 45,-12 73,-12 28,0 50,4 68,10 17,7 30,15 38,25 8,9 14,22 17,37 2,9 3,26 3,50l0 73c0,51 1,83 3,96 2,14 7,27 13,39l-57 0c-5,-11 -9,-25 -11,-40zm-4 -122c-20,9 -50,15 -90,21 -22,3 -38,7 -48,11 -9,4 -16,10 -21,18 -5,7 -8,16 -8,26 0,14 6,26 17,36 11,9 27,14 48,14 21,0 40,-4 57,-14 16,-9 28,-21 36,-37 6,-12 9,-31 9,-55l0 -20z"/>
  <polygon id="2" class="fil1" points="10825,130 10880,130 10880,265 11032,265 11032,130 11086,130 11086,453 11032,453 11032,310 10880,310 10880,453 10825,453 "/>
  <polygon id="3" class="fil1" points="11140,130 11402,130 11402,176 11298,176 11298,453 11243,453 11243,176 11140,176 "/>
  <polygon id="4" class="fil1" points="11454,130 11509,130 11509,377 11661,130 11720,130 11720,453 11665,453 11665,208 11513,453 11454,453 "/>
  <path id="5" class="fil1" d="M12013 335l54 8c-6,36 -21,65 -45,86 -25,21 -54,31 -90,31 -44,0 -79,-14 -106,-43 -27,-29 -40,-70 -40,-124 0,-35 5,-65 17,-91 12,-26 29,-46 53,-59 23,-13 49,-20 77,-20 35,0 64,9 86,27 22,18 36,43 43,75l-53 9c-5,-22 -14,-38 -27,-49 -13,-11 -29,-17 -47,-17 -28,0 -50,10 -67,30 -18,20 -26,51 -26,93 0,44 8,75 25,95 16,20 38,29 65,29 21,0 39,-6 54,-19 14,-13 23,-34 27,-61z"/>
  <path id="6" class="fil1" d="M12324 335l54 8c-6,36 -21,65 -45,86 -24,21 -54,31 -89,31 -44,0 -80,-14 -107,-43 -27,-29 -40,-70 -40,-124 0,-35 6,-65 17,-91 12,-26 29,-46 53,-59 24,-13 49,-20 77,-20 35,0 64,9 86,27 22,18 37,43 43,75l-53 9c-5,-22 -14,-38 -27,-49 -13,-11 -28,-17 -47,-17 -27,0 -50,10 -67,30 -17,20 -26,51 -26,93 0,44 8,75 25,95 17,20 38,29 65,29 22,0 40,-6 54,-19 14,-13 24,-34 27,-61z"/>
  <path id="7" class="fil1" d="M12636 413c-20,17 -40,29 -59,37 -19,7 -39,10 -60,10 -36,0 -63,-8 -82,-26 -19,-17 -29,-39 -29,-66 0,-16 4,-30 11,-43 7,-13 17,-24 28,-32 12,-7 25,-13 40,-17 10,-3 27,-6 48,-9 45,-5 77,-11 98,-18 0,-8 0,-13 0,-15 0,-22 -5,-38 -15,-47 -14,-12 -35,-18 -63,-18 -25,0 -45,4 -57,13 -12,9 -21,25 -27,48l-54 -7c5,-23 13,-42 24,-56 12,-14 28,-25 49,-32 21,-8 46,-12 74,-12 27,0 50,4 67,10 17,7 30,15 38,25 8,9 14,22 17,37 2,9 3,26 3,50l0 73c0,51 1,83 3,96 3,14 7,27 14,39l-58 0c-5,-11 -9,-25 -10,-40zm-5 -122c-19,9 -49,15 -89,21 -23,3 -39,7 -48,11 -10,4 -17,10 -22,18 -5,7 -7,16 -7,26 0,14 5,26 16,36 11,9 27,14 49,14 21,0 40,-4 56,-14 17,-9 29,-21 36,-37 6,-12 9,-31 9,-55l0 -20z"/>
  <path class="fil1" d="M0 328l56 -15c4,22 16,43 34,65 19,22 43,32 74,32 31,0 56,-8 74,-24 18,-16 27,-35 27,-58 0,-24 -10,-44 -29,-58 -19,-15 -44,-22 -77,-22l-28 0 0 -52c27,0 47,-1 62,-4 14,-4 27,-12 38,-24 11,-13 16,-28 16,-44 0,-20 -7,-36 -22,-51 -15,-14 -36,-21 -61,-21 -23,0 -42,5 -57,17 -16,11 -27,26 -33,44 -6,19 -9,33 -9,42l-57 -13c14,-95 66,-142 156,-142 44,0 78,12 104,36 25,25 38,53 38,85 0,42 -20,74 -59,97 23,6 42,19 57,38 15,20 23,43 23,70 0,38 -15,70 -45,96 -29,26 -69,39 -118,39 -84,0 -139,-45 -164,-133z"/>
  <polygon id="1" class="fil1" points="394,130 448,130 448,265 600,265 600,130 655,130 655,453 600,453 600,310 448,310 448,453 394,453 "/>
  <path id="2" class="fil1" d="M949 413c-21,17 -40,29 -59,37 -19,7 -39,10 -61,10 -35,0 -62,-8 -81,-26 -20,-17 -29,-39 -29,-66 0,-16 4,-30 11,-43 7,-13 16,-24 28,-32 12,-7 25,-13 39,-17 11,-3 28,-6 49,-9 44,-5 77,-11 98,-18 0,-8 0,-13 0,-15 0,-22 -5,-38 -15,-47 -14,-12 -35,-18 -63,-18 -26,0 -45,4 -57,13 -12,9 -21,25 -27,48l-54 -7c5,-23 13,-42 24,-56 12,-14 28,-25 49,-32 21,-8 46,-12 73,-12 28,0 51,4 68,10 17,7 30,15 38,25 8,9 14,22 17,37 2,9 3,26 3,50l0 73c0,51 1,83 3,96 2,14 7,27 14,39l-58 0c-5,-11 -9,-25 -10,-40zm-5 -122c-20,9 -49,15 -89,21 -23,3 -39,7 -48,11 -10,4 -17,10 -22,18 -5,7 -8,16 -8,26 0,14 6,26 17,36 11,9 27,14 49,14 21,0 39,-4 56,-14 16,-9 29,-21 36,-37 6,-12 9,-31 9,-55l0 -20z"/>
  <path id="3" class="fil1" d="M1083 130l55 0 0 140c18,0 30,-4 37,-10 7,-7 17,-26 31,-59 11,-25 19,-42 26,-50 7,-8 14,-14 23,-17 9,-2 23,-4 42,-4l11 0 0 45 -15 0c-15,0 -24,2 -28,6 -4,5 -11,18 -19,40 -9,21 -16,36 -23,44 -7,8 -18,16 -32,22 23,7 47,29 70,66l60 100 -61 0 -59 -99c-12,-21 -22,-34 -31,-40 -9,-7 -19,-10 -32,-10l0 149 -55 0 0 -323z"/>
  <path class="fil1" d="M16 2758l43 -5c5,24 13,41 25,52 11,11 26,16 43,16 20,0 37,-7 51,-21 14,-14 20,-31 20,-51 0,-20 -6,-36 -19,-49 -13,-13 -29,-19 -49,-19 -8,0 -18,2 -30,5l5 -38c3,1 5,1 7,1 18,0 35,-5 49,-14 15,-10 22,-24 22,-44 0,-15 -5,-28 -16,-39 -11,-10 -24,-15 -41,-15 -17,0 -30,5 -41,16 -11,10 -19,26 -22,47l-42 -8c5,-28 17,-51 35,-66 19,-16 42,-24 69,-24 19,0 36,4 52,12 16,8 28,19 37,33 8,15 13,29 13,45 0,15 -5,29 -12,41 -9,12 -21,22 -36,29 20,5 36,15 48,30 11,15 16,33 16,56 0,30 -11,56 -33,77 -22,21 -50,31 -83,31 -31,0 -56,-9 -76,-27 -20,-18 -32,-42 -35,-71z"/>
  <path id="1" class="fil1" d="M446 2850l-43 0 0 -271c-10,10 -24,20 -40,29 -17,10 -32,18 -45,22l0 -41c24,-11 44,-24 62,-40 18,-16 31,-32 38,-47l28 0 0 348z"/>
  <path id="2" class="fil1" d="M824 2758l43 -5c5,24 13,41 25,52 12,11 26,16 43,16 20,0 37,-7 51,-21 14,-14 20,-31 20,-51 0,-20 -6,-36 -19,-49 -12,-13 -29,-19 -49,-19 -8,0 -18,2 -30,5l5 -38c3,1 5,1 7,1 18,0 35,-5 49,-14 15,-10 22,-24 22,-44 0,-15 -5,-28 -16,-39 -11,-10 -24,-15 -41,-15 -17,0 -30,5 -41,16 -11,10 -19,26 -22,47l-42 -8c5,-28 17,-51 35,-66 19,-16 42,-24 69,-24 19,0 36,4 52,12 16,8 28,19 37,33 8,15 13,29 13,45 0,15 -4,29 -12,41 -9,12 -20,22 -36,29 20,5 36,15 48,30 11,15 17,33 17,56 0,30 -12,56 -34,77 -22,21 -50,31 -83,31 -31,0 -56,-9 -76,-27 -20,-18 -32,-42 -35,-71z"/>
  <path id="3" class="fil1" d="M1094 2679c0,-41 4,-74 12,-99 9,-25 21,-44 38,-58 17,-13 37,-20 63,-20 18,0 35,4 49,11 14,8 25,19 34,33 9,14 16,31 22,51 5,21 7,48 7,82 0,41 -4,74 -12,99 -8,25 -21,44 -37,58 -17,14 -38,20 -63,20 -34,0 -60,-12 -79,-35 -23,-29 -34,-77 -34,-142zm43 0c0,58 7,95 20,114 14,19 30,28 50,28 19,0 36,-9 49,-28 13,-19 20,-57 20,-114 0,-57 -7,-95 -20,-113 -13,-19 -30,-28 -50,-28 -19,0 -35,8 -47,24 -14,21 -22,61 -22,117z"/>
  <path id="4" class="fil1" d="M5759 2810l0 40 -230 0c0,-10 2,-20 5,-29 6,-16 16,-31 29,-46 13,-15 31,-33 55,-53 38,-30 63,-55 77,-73 13,-18 20,-35 20,-51 0,-17 -6,-31 -18,-43 -12,-12 -28,-17 -48,-17 -20,0 -37,6 -49,18 -13,12 -19,29 -19,51l-43 -5c2,-32 14,-57 33,-74 20,-17 46,-26 79,-26 33,0 60,9 79,28 20,18 29,41 29,69 0,13 -2,27 -8,41 -6,13 -15,27 -28,42 -14,15 -36,35 -66,61 -26,21 -42,36 -49,44 -8,7 -14,15 -18,23l170 0z"/>
  <path id="5" class="fil1" d="M6028 2810l0 40 -229 0c-1,-10 1,-20 5,-29 6,-16 15,-31 28,-46 13,-15 32,-33 56,-53 37,-30 63,-55 76,-73 14,-18 20,-35 20,-51 0,-17 -6,-31 -18,-43 -12,-12 -28,-17 -47,-17 -21,0 -37,6 -50,18 -12,12 -18,29 -18,51l-44 -5c3,-32 14,-57 34,-74 19,-17 46,-26 79,-26 33,0 59,9 79,28 19,18 29,41 29,69 0,13 -3,27 -9,41 -5,13 -15,27 -28,42 -13,15 -35,35 -66,61 -25,21 -42,36 -49,44 -7,7 -13,15 -18,23l170 0z"/>
  <path id="6" class="fil1" d="M16976 2679c0,-41 5,-74 13,-99 9,-25 21,-44 38,-58 16,-13 37,-20 62,-20 19,0 35,4 49,11 14,8 26,19 35,33 9,14 16,31 21,51 6,21 8,48 8,82 0,41 -4,74 -12,99 -9,25 -21,44 -38,58 -16,14 -37,20 -63,20 -33,0 -59,-12 -78,-35 -23,-29 -35,-77 -35,-142zm44 0c0,58 7,95 20,114 13,19 30,28 49,28 20,0 36,-9 50,-28 13,-19 20,-57 20,-114 0,-57 -7,-95 -20,-113 -14,-19 -30,-28 -50,-28 -20,0 -35,8 -47,24 -15,21 -22,61 -22,117z"/>
  <path class="fil1" d="M3090 1472c-18,-6 -31,-15 -40,-27 -8,-12 -12,-27 -12,-43 0,-26 9,-47 27,-64 18,-17 42,-26 72,-26 30,0 55,9 73,26 18,18 28,39 28,65 0,16 -5,30 -13,42 -8,12 -21,21 -38,27 21,7 37,18 48,34 11,15 17,34 17,55 0,30 -11,55 -32,75 -21,20 -48,30 -82,30 -35,0 -62,-10 -83,-30 -21,-20 -32,-46 -32,-76 0,-23 6,-41 18,-57 11,-15 27,-25 49,-31zm-9 -72c0,16 5,30 16,40 10,11 24,16 41,16 17,0 30,-5 40,-16 11,-10 16,-23 16,-38 0,-15 -5,-28 -16,-39 -11,-11 -24,-16 -40,-16 -17,0 -30,5 -41,16 -11,10 -16,22 -16,37zm-14 160c0,13 3,24 9,36 5,11 14,20 25,26 12,6 24,9 37,9 20,0 37,-6 50,-19 13,-13 20,-30 20,-50 0,-21 -7,-38 -20,-51 -14,-13 -31,-20 -52,-20 -20,0 -36,6 -49,20 -13,13 -20,29 -20,49z"/>
  <path class="fil1" d="M11370 1620l0 40 -229 0c-1,-10 1,-20 5,-29 5,-16 15,-31 28,-46 13,-15 32,-33 56,-53 37,-31 63,-55 76,-73 13,-18 20,-35 20,-51 0,-17 -6,-32 -18,-43 -12,-12 -28,-18 -47,-18 -21,0 -37,7 -50,19 -12,12 -18,29 -19,51l-43 -5c3,-32 14,-57 34,-74 19,-17 46,-26 79,-26 33,0 59,9 79,28 19,18 29,41 29,68 0,14 -3,28 -9,41 -5,14 -15,28 -28,43 -13,15 -35,35 -66,61 -25,21 -42,36 -49,44 -7,7 -13,15 -18,23l170 0z"/>
  <path id="1" class="fil1" d="M11416 1568l43 -5c5,24 13,41 25,52 12,10 26,16 43,16 20,0 37,-7 51,-21 14,-14 20,-31 20,-52 0,-19 -6,-35 -19,-48 -13,-13 -29,-19 -49,-19 -8,0 -18,2 -30,5l5 -38c3,1 5,1 7,1 18,0 35,-5 49,-14 15,-10 22,-24 22,-44 0,-16 -5,-28 -16,-39 -11,-10 -24,-15 -41,-15 -17,0 -30,5 -41,16 -11,10 -19,26 -22,47l-42 -8c5,-28 17,-51 35,-66 19,-16 42,-24 69,-24 19,0 36,4 52,12 16,8 28,19 37,33 8,14 13,29 13,45 0,15 -4,29 -12,41 -9,12 -20,22 -36,29 20,5 36,15 48,30 11,14 17,33 17,56 0,30 -12,56 -34,77 -22,21 -50,31 -83,31 -31,0 -56,-9 -76,-27 -20,-18 -32,-42 -35,-71z"/>
  <path class="fil1" d="M735 1660l-42 0 0 -271c-10,10 -24,20 -41,29 -16,10 -31,17 -44,22l0 -41c23,-11 44,-25 62,-41 18,-15 31,-31 38,-46l27 0 0 348z"/>
 </g>
</svg>
