<?xml version="1.0" standalone="no"?>
<!DOCTYPE svg PUBLIC "-//W3C//DTD SVG 1.1//EN" "http://www.w3.org/Graphics/SVG/1.1/DTD/svg11.dtd">
<svg width="407" height="407" version="1.1" xmlns="http://www.w3.org/2000/svg">
<rect x="0" y="0" width="407" height="407" style="fill:rgb(255,255,255);" />
<rect x="44" y="44" width="11" height="11" style="fill:rgb(0,0,0);" />
<rect x="55" y="44" width="11" height="11" style="fill:rgb(0,0,0);" />
<rect x="66" y="44" width="11" height="11" style="fill:rgb(0,0,0);" />
<rect x="77" y="44" width="11" height="11" style="fill:rgb(0,0,0);" />
<rect x="88" y="44" width="11" height="11" style="fill:rgb(0,0,0);" />
<rect x="99" y="44" width="11" height="11" style="fill:rgb(0,0,0);" />
<rect x="110" y="44" width="11" height="11" style="fill:rgb(0,0,0);" />
<rect x="132" y="44" width="11" height="11" style="fill:rgb(0,0,0);" />
<rect x="154" y="44" width="11" height="11" style="fill:rgb(0,0,0);" />
<rect x="165" y="44" width="11" height="11" style="fill:rgb(0,0,0);" />
<rect x="176" y="44" width="11" height="11" style="fill:rgb(0,0,0);" />
<rect x="187" y="44" width="11" height="11" style="fill:rgb(0,0,0);" />
<rect x="198" y="44" width="11" height="11" style="fill:rgb(0,0,0);" />
<rect x="209" y="44" width="11" height="11" style="fill:rgb(0,0,0);" />
<rect x="231" y="44" width="11" height="11" style="fill:rgb(0,0,0);" />
<rect x="242" y="44" width="11" height="11" style="fill:rgb(0,0,0);" />
<rect x="253" y="44" width="11" height="11" style="fill:rgb(0,0,0);" />
<rect x="286" y="44" width="11" height="11" style="fill:rgb(0,0,0);" />
<rect x="297" y="44" width="11" height="11" style="fill:rgb(0,0,0);" />
<rect x="308" y="44" width="11" height="11" style="fill:rgb(0,0,0);" />
<rect x="319" y="44" width="11" height="11" style="fill:rgb(0,0,0);" />
<rect x="330" y="44" width="11" height="11" style="fill:rgb(0,0,0);" />
<rect x="341" y="44" width="11" height="11" style="fill:rgb(0,0,0);" />
<rect x="352" y="44" width="11" height="11" style="fill:rgb(0,0,0);" />
<rect x="44" y="55" width="11" height="11" style="fill:rgb(0,0,0);" />
<rect x="110" y="55" width="11" height="11" style="fill:rgb(0,0,0);" />
<rect x="132" y="55" width="11" height="11" style="fill:rgb(0,0,0);" />
<rect x="187" y="55" width="11" height="11" style="fill:rgb(0,0,0);" />
<rect x="198" y="55" width="11" height="11" style="fill:rgb(0,0,0);" />
<rect x="209" y="55" width="11" height="11" style="fill:rgb(0,0,0);" />
<rect x="242" y="55" width="11" height="11" style="fill:rgb(0,0,0);" />
<rect x="264" y="55" width="11" height="11" style="fill:rgb(0,0,0);" />
<rect x="286" y="55" width="11" height="11" style="fill:rgb(0,0,0);" />
<rect x="352" y="55" width="11" height="11" style="fill:rgb(0,0,0);" />
<rect x="44" y="66" width="11" height="11" style="fill:rgb(0,0,0);" />
<rect x="66" y="66" width="11" height="11" style="fill:rgb(0,0,0);" />
<rect x="77" y="66" width="11" height="11" style="fill:rgb(0,0,0);" />
<rect x="88" y="66" width="11" height="11" style="fill:rgb(0,0,0);" />
<rect x="110" y="66" width="11" height="11" style="fill:rgb(0,0,0);" />
<rect x="132" y="66" width="11" height="11" style="fill:rgb(0,0,0);" />
<rect x="143" y="66" width="11" height="11" style="fill:rgb(0,0,0);" />
<rect x="154" y="66" width="11" height="11" style="fill:rgb(0,0,0);" />
<rect x="165" y="66" width="11" height="11" style="fill:rgb(0,0,0);" />
<rect x="176" y="66" width="11" height="11" style="fill:rgb(0,0,0);" />
<rect x="187" y="66" width="11" height="11" style="fill:rgb(0,0,0);" />
<rect x="198" y="66" width="11" height="11" style="fill:rgb(0,0,0);" />
<rect x="264" y="66" width="11" height="11" style="fill:rgb(0,0,0);" />
<rect x="286" y="66" width="11" height="11" style="fill:rgb(0,0,0);" />
<rect x="308" y="66" width="11" height="11" style="fill:rgb(0,0,0);" />
<rect x="319" y="66" width="11" height="11" style="fill:rgb(0,0,0);" />
<rect x="330" y="66" width="11" height="11" style="fill:rgb(0,0,0);" />
<rect x="352" y="66" width="11" height="11" style="fill:rgb(0,0,0);" />
<rect x="44" y="77" width="11" height="11" style="fill:rgb(0,0,0);" />
<rect x="66" y="77" width="11" height="11" style="fill:rgb(0,0,0);" />
<rect x="77" y="77" width="11" height="11" style="fill:rgb(0,0,0);" />
<rect x="88" y="77" width="11" height="11" style="fill:rgb(0,0,0);" />
<rect x="110" y="77" width="11" height="11" style="fill:rgb(0,0,0);" />
<rect x="143" y="77" width="11" height="11" style="fill:rgb(0,0,0);" />
<rect x="154" y="77" width="11" height="11" style="fill:rgb(0,0,0);" />
<rect x="198" y="77" width="11" height="11" style="fill:rgb(0,0,0);" />
<rect x="209" y="77" width="11" height="11" style="fill:rgb(0,0,0);" />
<rect x="242" y="77" width="11" height="11" style="fill:rgb(0,0,0);" />
<rect x="253" y="77" width="11" height="11" style="fill:rgb(0,0,0);" />
<rect x="264" y="77" width="11" height="11" style="fill:rgb(0,0,0);" />
<rect x="286" y="77" width="11" height="11" style="fill:rgb(0,0,0);" />
<rect x="308" y="77" width="11" height="11" style="fill:rgb(0,0,0);" />
<rect x="319" y="77" width="11" height="11" style="fill:rgb(0,0,0);" />
<rect x="330" y="77" width="11" height="11" style="fill:rgb(0,0,0);" />
<rect x="352" y="77" width="11" height="11" style="fill:rgb(0,0,0);" />
<rect x="44" y="88" width="11" height="11" style="fill:rgb(0,0,0);" />
<rect x="66" y="88" width="11" height="11" style="fill:rgb(0,0,0);" />
<rect x="77" y="88" width="11" height="11" style="fill:rgb(0,0,0);" />
<rect x="88" y="88" width="11" height="11" style="fill:rgb(0,0,0);" />
<rect x="110" y="88" width="11" height="11" style="fill:rgb(0,0,0);" />
<rect x="132" y="88" width="11" height="11" style="fill:rgb(0,0,0);" />
<rect x="154" y="88" width="11" height="11" style="fill:rgb(0,0,0);" />
<rect x="165" y="88" width="11" height="11" style="fill:rgb(0,0,0);" />
<rect x="187" y="88" width="11" height="11" style="fill:rgb(0,0,0);" />
<rect x="209" y="88" width="11" height="11" style="fill:rgb(0,0,0);" />
<rect x="264" y="88" width="11" height="11" style="fill:rgb(0,0,0);" />
<rect x="286" y="88" width="11" height="11" style="fill:rgb(0,0,0);" />
<rect x="308" y="88" width="11" height="11" style="fill:rgb(0,0,0);" />
<rect x="319" y="88" width="11" height="11" style="fill:rgb(0,0,0);" />
<rect x="330" y="88" width="11" height="11" style="fill:rgb(0,0,0);" />
<rect x="352" y="88" width="11" height="11" style="fill:rgb(0,0,0);" />
<rect x="44" y="99" width="11" height="11" style="fill:rgb(0,0,0);" />
<rect x="110" y="99" width="11" height="11" style="fill:rgb(0,0,0);" />
<rect x="143" y="99" width="11" height="11" style="fill:rgb(0,0,0);" />
<rect x="154" y="99" width="11" height="11" style="fill:rgb(0,0,0);" />
<rect x="176" y="99" width="11" height="11" style="fill:rgb(0,0,0);" />
<rect x="187" y="99" width="11" height="11" style="fill:rgb(0,0,0);" />
<rect x="198" y="99" width="11" height="11" style="fill:rgb(0,0,0);" />
<rect x="264" y="99" width="11" height="11" style="fill:rgb(0,0,0);" />
<rect x="286" y="99" width="11" height="11" style="fill:rgb(0,0,0);" />
<rect x="352" y="99" width="11" height="11" style="fill:rgb(0,0,0);" />
<rect x="44" y="110" width="11" height="11" style="fill:rgb(0,0,0);" />
<rect x="55" y="110" width="11" height="11" style="fill:rgb(0,0,0);" />
<rect x="66" y="110" width="11" height="11" style="fill:rgb(0,0,0);" />
<rect x="77" y="110" width="11" height="11" style="fill:rgb(0,0,0);" />
<rect x="88" y="110" width="11" height="11" style="fill:rgb(0,0,0);" />
<rect x="99" y="110" width="11" height="11" style="fill:rgb(0,0,0);" />
<rect x="110" y="110" width="11" height="11" style="fill:rgb(0,0,0);" />
<rect x="132" y="110" width="11" height="11" style="fill:rgb(0,0,0);" />
<rect x="154" y="110" width="11" height="11" style="fill:rgb(0,0,0);" />
<rect x="176" y="110" width="11" height="11" style="fill:rgb(0,0,0);" />
<rect x="198" y="110" width="11" height="11" style="fill:rgb(0,0,0);" />
<rect x="220" y="110" width="11" height="11" style="fill:rgb(0,0,0);" />
<rect x="242" y="110" width="11" height="11" style="fill:rgb(0,0,0);" />
<rect x="264" y="110" width="11" height="11" style="fill:rgb(0,0,0);" />
<rect x="286" y="110" width="11" height="11" style="fill:rgb(0,0,0);" />
<rect x="297" y="110" width="11" height="11" style="fill:rgb(0,0,0);" />
<rect x="308" y="110" width="11" height="11" style="fill:rgb(0,0,0);" />
<rect x="319" y="110" width="11" height="11" style="fill:rgb(0,0,0);" />
<rect x="330" y="110" width="11" height="11" style="fill:rgb(0,0,0);" />
<rect x="341" y="110" width="11" height="11" style="fill:rgb(0,0,0);" />
<rect x="352" y="110" width="11" height="11" style="fill:rgb(0,0,0);" />
<rect x="176" y="121" width="11" height="11" style="fill:rgb(0,0,0);" />
<rect x="198" y="121" width="11" height="11" style="fill:rgb(0,0,0);" />
<rect x="231" y="121" width="11" height="11" style="fill:rgb(0,0,0);" />
<rect x="242" y="121" width="11" height="11" style="fill:rgb(0,0,0);" />
<rect x="253" y="121" width="11" height="11" style="fill:rgb(0,0,0);" />
<rect x="44" y="132" width="11" height="11" style="fill:rgb(0,0,0);" />
<rect x="77" y="132" width="11" height="11" style="fill:rgb(0,0,0);" />
<rect x="88" y="132" width="11" height="11" style="fill:rgb(0,0,0);" />
<rect x="99" y="132" width="11" height="11" style="fill:rgb(0,0,0);" />
<rect x="110" y="132" width="11" height="11" style="fill:rgb(0,0,0);" />
<rect x="121" y="132" width="11" height="11" style="fill:rgb(0,0,0);" />
<rect x="132" y="132" width="11" height="11" style="fill:rgb(0,0,0);" />
<rect x="143" y="132" width="11" height="11" style="fill:rgb(0,0,0);" />
<rect x="154" y="132" width="11" height="11" style="fill:rgb(0,0,0);" />
<rect x="176" y="132" width="11" height="11" style="fill:rgb(0,0,0);" />
<rect x="187" y="132" width="11" height="11" style="fill:rgb(0,0,0);" />
<rect x="198" y="132" width="11" height="11" style="fill:rgb(0,0,0);" />
<rect x="209" y="132" width="11" height="11" style="fill:rgb(0,0,0);" />
<rect x="220" y="132" width="11" height="11" style="fill:rgb(0,0,0);" />
<rect x="275" y="132" width="11" height="11" style="fill:rgb(0,0,0);" />
<rect x="308" y="132" width="11" height="11" style="fill:rgb(0,0,0);" />
<rect x="330" y="132" width="11" height="11" style="fill:rgb(0,0,0);" />
<rect x="341" y="132" width="11" height="11" style="fill:rgb(0,0,0);" />
<rect x="352" y="132" width="11" height="11" style="fill:rgb(0,0,0);" />
<rect x="77" y="143" width="11" height="11" style="fill:rgb(0,0,0);" />
<rect x="121" y="143" width="11" height="11" style="fill:rgb(0,0,0);" />
<rect x="132" y="143" width="11" height="11" style="fill:rgb(0,0,0);" />
<rect x="143" y="143" width="11" height="11" style="fill:rgb(0,0,0);" />
<rect x="198" y="143" width="11" height="11" style="fill:rgb(0,0,0);" />
<rect x="242" y="143" width="11" height="11" style="fill:rgb(0,0,0);" />
<rect x="253" y="143" width="11" height="11" style="fill:rgb(0,0,0);" />
<rect x="297" y="143" width="11" height="11" style="fill:rgb(0,0,0);" />
<rect x="308" y="143" width="11" height="11" style="fill:rgb(0,0,0);" />
<rect x="330" y="143" width="11" height="11" style="fill:rgb(0,0,0);" />
<rect x="341" y="143" width="11" height="11" style="fill:rgb(0,0,0);" />
<rect x="44" y="154" width="11" height="11" style="fill:rgb(0,0,0);" />
<rect x="55" y="154" width="11" height="11" style="fill:rgb(0,0,0);" />
<rect x="66" y="154" width="11" height="11" style="fill:rgb(0,0,0);" />
<rect x="99" y="154" width="11" height="11" style="fill:rgb(0,0,0);" />
<rect x="110" y="154" width="11" height="11" style="fill:rgb(0,0,0);" />
<rect x="132" y="154" width="11" height="11" style="fill:rgb(0,0,0);" />
<rect x="143" y="154" width="11" height="11" style="fill:rgb(0,0,0);" />
<rect x="154" y="154" width="11" height="11" style="fill:rgb(0,0,0);" />
<rect x="165" y="154" width="11" height="11" style="fill:rgb(0,0,0);" />
<rect x="198" y="154" width="11" height="11" style="fill:rgb(0,0,0);" />
<rect x="231" y="154" width="11" height="11" style="fill:rgb(0,0,0);" />
<rect x="242" y="154" width="11" height="11" style="fill:rgb(0,0,0);" />
<rect x="286" y="154" width="11" height="11" style="fill:rgb(0,0,0);" />
<rect x="308" y="154" width="11" height="11" style="fill:rgb(0,0,0);" />
<rect x="330" y="154" width="11" height="11" style="fill:rgb(0,0,0);" />
<rect x="77" y="165" width="11" height="11" style="fill:rgb(0,0,0);" />
<rect x="99" y="165" width="11" height="11" style="fill:rgb(0,0,0);" />
<rect x="121" y="165" width="11" height="11" style="fill:rgb(0,0,0);" />
<rect x="132" y="165" width="11" height="11" style="fill:rgb(0,0,0);" />
<rect x="154" y="165" width="11" height="11" style="fill:rgb(0,0,0);" />
<rect x="176" y="165" width="11" height="11" style="fill:rgb(0,0,0);" />
<rect x="198" y="165" width="11" height="11" style="fill:rgb(0,0,0);" />
<rect x="209" y="165" width="11" height="11" style="fill:rgb(0,0,0);" />
<rect x="231" y="165" width="11" height="11" style="fill:rgb(0,0,0);" />
<rect x="253" y="165" width="11" height="11" style="fill:rgb(0,0,0);" />
<rect x="264" y="165" width="11" height="11" style="fill:rgb(0,0,0);" />
<rect x="297" y="165" width="11" height="11" style="fill:rgb(0,0,0);" />
<rect x="352" y="165" width="11" height="11" style="fill:rgb(0,0,0);" />
<rect x="44" y="176" width="11" height="11" style="fill:rgb(0,0,0);" />
<rect x="55" y="176" width="11" height="11" style="fill:rgb(0,0,0);" />
<rect x="66" y="176" width="11" height="11" style="fill:rgb(0,0,0);" />
<rect x="77" y="176" width="11" height="11" style="fill:rgb(0,0,0);" />
<rect x="99" y="176" width="11" height="11" style="fill:rgb(0,0,0);" />
<rect x="110" y="176" width="11" height="11" style="fill:rgb(0,0,0);" />
<rect x="132" y="176" width="11" height="11" style="fill:rgb(0,0,0);" />
<rect x="154" y="176" width="11" height="11" style="fill:rgb(0,0,0);" />
<rect x="165" y="176" width="11" height="11" style="fill:rgb(0,0,0);" />
<rect x="187" y="176" width="11" height="11" style="fill:rgb(0,0,0);" />
<rect x="198" y="176" width="11" height="11" style="fill:rgb(0,0,0);" />
<rect x="231" y="176" width="11" height="11" style="fill:rgb(0,0,0);" />
<rect x="242" y="176" width="11" height="11" style="fill:rgb(0,0,0);" />
<rect x="264" y="176" width="11" height="11" style="fill:rgb(0,0,0);" />
<rect x="286" y="176" width="11" height="11" style="fill:rgb(0,0,0);" />
<rect x="297" y="176" width="11" height="11" style="fill:rgb(0,0,0);" />
<rect x="352" y="176" width="11" height="11" style="fill:rgb(0,0,0);" />
<rect x="44" y="187" width="11" height="11" style="fill:rgb(0,0,0);" />
<rect x="55" y="187" width="11" height="11" style="fill:rgb(0,0,0);" />
<rect x="88" y="187" width="11" height="11" style="fill:rgb(0,0,0);" />
<rect x="121" y="187" width="11" height="11" style="fill:rgb(0,0,0);" />
<rect x="132" y="187" width="11" height="11" style="fill:rgb(0,0,0);" />
<rect x="176" y="187" width="11" height="11" style="fill:rgb(0,0,0);" />
<rect x="231" y="187" width="11" height="11" style="fill:rgb(0,0,0);" />
<rect x="286" y="187" width="11" height="11" style="fill:rgb(0,0,0);" />
<rect x="297" y="187" width="11" height="11" style="fill:rgb(0,0,0);" />
<rect x="308" y="187" width="11" height="11" style="fill:rgb(0,0,0);" />
<rect x="319" y="187" width="11" height="11" style="fill:rgb(0,0,0);" />
<rect x="341" y="187" width="11" height="11" style="fill:rgb(0,0,0);" />
<rect x="352" y="187" width="11" height="11" style="fill:rgb(0,0,0);" />
<rect x="66" y="198" width="11" height="11" style="fill:rgb(0,0,0);" />
<rect x="77" y="198" width="11" height="11" style="fill:rgb(0,0,0);" />
<rect x="88" y="198" width="11" height="11" style="fill:rgb(0,0,0);" />
<rect x="110" y="198" width="11" height="11" style="fill:rgb(0,0,0);" />
<rect x="132" y="198" width="11" height="11" style="fill:rgb(0,0,0);" />
<rect x="143" y="198" width="11" height="11" style="fill:rgb(0,0,0);" />
<rect x="165" y="198" width="11" height="11" style="fill:rgb(0,0,0);" />
<rect x="176" y="198" width="11" height="11" style="fill:rgb(0,0,0);" />
<rect x="198" y="198" width="11" height="11" style="fill:rgb(0,0,0);" />
<rect x="209" y="198" width="11" height="11" style="fill:rgb(0,0,0);" />
<rect x="231" y="198" width="11" height="11" style="fill:rgb(0,0,0);" />
<rect x="253" y="198" width="11" height="11" style="fill:rgb(0,0,0);" />
<rect x="264" y="198" width="11" height="11" style="fill:rgb(0,0,0);" />
<rect x="286" y="198" width="11" height="11" style="fill:rgb(0,0,0);" />
<rect x="319" y="198" width="11" height="11" style="fill:rgb(0,0,0);" />
<rect x="330" y="198" width="11" height="11" style="fill:rgb(0,0,0);" />
<rect x="352" y="198" width="11" height="11" style="fill:rgb(0,0,0);" />
<rect x="55" y="209" width="11" height="11" style="fill:rgb(0,0,0);" />
<rect x="66" y="209" width="11" height="11" style="fill:rgb(0,0,0);" />
<rect x="121" y="209" width="11" height="11" style="fill:rgb(0,0,0);" />
<rect x="143" y="209" width="11" height="11" style="fill:rgb(0,0,0);" />
<rect x="154" y="209" width="11" height="11" style="fill:rgb(0,0,0);" />
<rect x="187" y="209" width="11" height="11" style="fill:rgb(0,0,0);" />
<rect x="198" y="209" width="11" height="11" style="fill:rgb(0,0,0);" />
<rect x="220" y="209" width="11" height="11" style="fill:rgb(0,0,0);" />
<rect x="231" y="209" width="11" height="11" style="fill:rgb(0,0,0);" />
<rect x="242" y="209" width="11" height="11" style="fill:rgb(0,0,0);" />
<rect x="253" y="209" width="11" height="11" style="fill:rgb(0,0,0);" />
<rect x="264" y="209" width="11" height="11" style="fill:rgb(0,0,0);" />
<rect x="275" y="209" width="11" height="11" style="fill:rgb(0,0,0);" />
<rect x="286" y="209" width="11" height="11" style="fill:rgb(0,0,0);" />
<rect x="297" y="209" width="11" height="11" style="fill:rgb(0,0,0);" />
<rect x="330" y="209" width="11" height="11" style="fill:rgb(0,0,0);" />
<rect x="352" y="209" width="11" height="11" style="fill:rgb(0,0,0);" />
<rect x="44" y="220" width="11" height="11" style="fill:rgb(0,0,0);" />
<rect x="66" y="220" width="11" height="11" style="fill:rgb(0,0,0);" />
<rect x="77" y="220" width="11" height="11" style="fill:rgb(0,0,0);" />
<rect x="110" y="220" width="11" height="11" style="fill:rgb(0,0,0);" />
<rect x="121" y="220" width="11" height="11" style="fill:rgb(0,0,0);" />
<rect x="143" y="220" width="11" height="11" style="fill:rgb(0,0,0);" />
<rect x="154" y="220" width="11" height="11" style="fill:rgb(0,0,0);" />
<rect x="176" y="220" width="11" height="11" style="fill:rgb(0,0,0);" />
<rect x="209" y="220" width="11" height="11" style="fill:rgb(0,0,0);" />
<rect x="231" y="220" width="11" height="11" style="fill:rgb(0,0,0);" />
<rect x="264" y="220" width="11" height="11" style="fill:rgb(0,0,0);" />
<rect x="297" y="220" width="11" height="11" style="fill:rgb(0,0,0);" />
<rect x="55" y="231" width="11" height="11" style="fill:rgb(0,0,0);" />
<rect x="77" y="231" width="11" height="11" style="fill:rgb(0,0,0);" />
<rect x="88" y="231" width="11" height="11" style="fill:rgb(0,0,0);" />
<rect x="99" y="231" width="11" height="11" style="fill:rgb(0,0,0);" />
<rect x="121" y="231" width="11" height="11" style="fill:rgb(0,0,0);" />
<rect x="132" y="231" width="11" height="11" style="fill:rgb(0,0,0);" />
<rect x="154" y="231" width="11" height="11" style="fill:rgb(0,0,0);" />
<rect x="165" y="231" width="11" height="11" style="fill:rgb(0,0,0);" />
<rect x="176" y="231" width="11" height="11" style="fill:rgb(0,0,0);" />
<rect x="231" y="231" width="11" height="11" style="fill:rgb(0,0,0);" />
<rect x="242" y="231" width="11" height="11" style="fill:rgb(0,0,0);" />
<rect x="253" y="231" width="11" height="11" style="fill:rgb(0,0,0);" />
<rect x="264" y="231" width="11" height="11" style="fill:rgb(0,0,0);" />
<rect x="297" y="231" width="11" height="11" style="fill:rgb(0,0,0);" />
<rect x="308" y="231" width="11" height="11" style="fill:rgb(0,0,0);" />
<rect x="319" y="231" width="11" height="11" style="fill:rgb(0,0,0);" />
<rect x="330" y="231" width="11" height="11" style="fill:rgb(0,0,0);" />
<rect x="341" y="231" width="11" height="11" style="fill:rgb(0,0,0);" />
<rect x="88" y="242" width="11" height="11" style="fill:rgb(0,0,0);" />
<rect x="110" y="242" width="11" height="11" style="fill:rgb(0,0,0);" />
<rect x="121" y="242" width="11" height="11" style="fill:rgb(0,0,0);" />
<rect x="132" y="242" width="11" height="11" style="fill:rgb(0,0,0);" />
<rect x="143" y="242" width="11" height="11" style="fill:rgb(0,0,0);" />
<rect x="154" y="242" width="11" height="11" style="fill:rgb(0,0,0);" />
<rect x="187" y="242" width="11" height="11" style="fill:rgb(0,0,0);" />
<rect x="198" y="242" width="11" height="11" style="fill:rgb(0,0,0);" />
<rect x="220" y="242" width="11" height="11" style="fill:rgb(0,0,0);" />
<rect x="231" y="242" width="11" height="11" style="fill:rgb(0,0,0);" />
<rect x="242" y="242" width="11" height="11" style="fill:rgb(0,0,0);" />
<rect x="253" y="242" width="11" height="11" style="fill:rgb(0,0,0);" />
<rect x="264" y="242" width="11" height="11" style="fill:rgb(0,0,0);" />
<rect x="352" y="242" width="11" height="11" style="fill:rgb(0,0,0);" />
<rect x="66" y="253" width="11" height="11" style="fill:rgb(0,0,0);" />
<rect x="99" y="253" width="11" height="11" style="fill:rgb(0,0,0);" />
<rect x="143" y="253" width="11" height="11" style="fill:rgb(0,0,0);" />
<rect x="154" y="253" width="11" height="11" style="fill:rgb(0,0,0);" />
<rect x="165" y="253" width="11" height="11" style="fill:rgb(0,0,0);" />
<rect x="187" y="253" width="11" height="11" style="fill:rgb(0,0,0);" />
<rect x="209" y="253" width="11" height="11" style="fill:rgb(0,0,0);" />
<rect x="220" y="253" width="11" height="11" style="fill:rgb(0,0,0);" />
<rect x="297" y="253" width="11" height="11" style="fill:rgb(0,0,0);" />
<rect x="308" y="253" width="11" height="11" style="fill:rgb(0,0,0);" />
<rect x="319" y="253" width="11" height="11" style="fill:rgb(0,0,0);" />
<rect x="330" y="253" width="11" height="11" style="fill:rgb(0,0,0);" />
<rect x="88" y="264" width="11" height="11" style="fill:rgb(0,0,0);" />
<rect x="110" y="264" width="11" height="11" style="fill:rgb(0,0,0);" />
<rect x="165" y="264" width="11" height="11" style="fill:rgb(0,0,0);" />
<rect x="187" y="264" width="11" height="11" style="fill:rgb(0,0,0);" />
<rect x="242" y="264" width="11" height="11" style="fill:rgb(0,0,0);" />
<rect x="264" y="264" width="11" height="11" style="fill:rgb(0,0,0);" />
<rect x="275" y="264" width="11" height="11" style="fill:rgb(0,0,0);" />
<rect x="286" y="264" width="11" height="11" style="fill:rgb(0,0,0);" />
<rect x="297" y="264" width="11" height="11" style="fill:rgb(0,0,0);" />
<rect x="308" y="264" width="11" height="11" style="fill:rgb(0,0,0);" />
<rect x="319" y="264" width="11" height="11" style="fill:rgb(0,0,0);" />
<rect x="330" y="264" width="11" height="11" style="fill:rgb(0,0,0);" />
<rect x="341" y="264" width="11" height="11" style="fill:rgb(0,0,0);" />
<rect x="132" y="275" width="11" height="11" style="fill:rgb(0,0,0);" />
<rect x="154" y="275" width="11" height="11" style="fill:rgb(0,0,0);" />
<rect x="176" y="275" width="11" height="11" style="fill:rgb(0,0,0);" />
<rect x="187" y="275" width="11" height="11" style="fill:rgb(0,0,0);" />
<rect x="220" y="275" width="11" height="11" style="fill:rgb(0,0,0);" />
<rect x="231" y="275" width="11" height="11" style="fill:rgb(0,0,0);" />
<rect x="264" y="275" width="11" height="11" style="fill:rgb(0,0,0);" />
<rect x="308" y="275" width="11" height="11" style="fill:rgb(0,0,0);" />
<rect x="319" y="275" width="11" height="11" style="fill:rgb(0,0,0);" />
<rect x="44" y="286" width="11" height="11" style="fill:rgb(0,0,0);" />
<rect x="55" y="286" width="11" height="11" style="fill:rgb(0,0,0);" />
<rect x="66" y="286" width="11" height="11" style="fill:rgb(0,0,0);" />
<rect x="77" y="286" width="11" height="11" style="fill:rgb(0,0,0);" />
<rect x="88" y="286" width="11" height="11" style="fill:rgb(0,0,0);" />
<rect x="99" y="286" width="11" height="11" style="fill:rgb(0,0,0);" />
<rect x="110" y="286" width="11" height="11" style="fill:rgb(0,0,0);" />
<rect x="132" y="286" width="11" height="11" style="fill:rgb(0,0,0);" />
<rect x="154" y="286" width="11" height="11" style="fill:rgb(0,0,0);" />
<rect x="165" y="286" width="11" height="11" style="fill:rgb(0,0,0);" />
<rect x="187" y="286" width="11" height="11" style="fill:rgb(0,0,0);" />
<rect x="209" y="286" width="11" height="11" style="fill:rgb(0,0,0);" />
<rect x="220" y="286" width="11" height="11" style="fill:rgb(0,0,0);" />
<rect x="253" y="286" width="11" height="11" style="fill:rgb(0,0,0);" />
<rect x="264" y="286" width="11" height="11" style="fill:rgb(0,0,0);" />
<rect x="286" y="286" width="11" height="11" style="fill:rgb(0,0,0);" />
<rect x="308" y="286" width="11" height="11" style="fill:rgb(0,0,0);" />
<rect x="319" y="286" width="11" height="11" style="fill:rgb(0,0,0);" />
<rect x="44" y="297" width="11" height="11" style="fill:rgb(0,0,0);" />
<rect x="110" y="297" width="11" height="11" style="fill:rgb(0,0,0);" />
<rect x="132" y="297" width="11" height="11" style="fill:rgb(0,0,0);" />
<rect x="143" y="297" width="11" height="11" style="fill:rgb(0,0,0);" />
<rect x="154" y="297" width="11" height="11" style="fill:rgb(0,0,0);" />
<rect x="187" y="297" width="11" height="11" style="fill:rgb(0,0,0);" />
<rect x="220" y="297" width="11" height="11" style="fill:rgb(0,0,0);" />
<rect x="242" y="297" width="11" height="11" style="fill:rgb(0,0,0);" />
<rect x="264" y="297" width="11" height="11" style="fill:rgb(0,0,0);" />
<rect x="308" y="297" width="11" height="11" style="fill:rgb(0,0,0);" />
<rect x="319" y="297" width="11" height="11" style="fill:rgb(0,0,0);" />
<rect x="341" y="297" width="11" height="11" style="fill:rgb(0,0,0);" />
<rect x="352" y="297" width="11" height="11" style="fill:rgb(0,0,0);" />
<rect x="44" y="308" width="11" height="11" style="fill:rgb(0,0,0);" />
<rect x="66" y="308" width="11" height="11" style="fill:rgb(0,0,0);" />
<rect x="77" y="308" width="11" height="11" style="fill:rgb(0,0,0);" />
<rect x="88" y="308" width="11" height="11" style="fill:rgb(0,0,0);" />
<rect x="110" y="308" width="11" height="11" style="fill:rgb(0,0,0);" />
<rect x="132" y="308" width="11" height="11" style="fill:rgb(0,0,0);" />
<rect x="154" y="308" width="11" height="11" style="fill:rgb(0,0,0);" />
<rect x="176" y="308" width="11" height="11" style="fill:rgb(0,0,0);" />
<rect x="187" y="308" width="11" height="11" style="fill:rgb(0,0,0);" />
<rect x="209" y="308" width="11" height="11" style="fill:rgb(0,0,0);" />
<rect x="220" y="308" width="11" height="11" style="fill:rgb(0,0,0);" />
<rect x="231" y="308" width="11" height="11" style="fill:rgb(0,0,0);" />
<rect x="253" y="308" width="11" height="11" style="fill:rgb(0,0,0);" />
<rect x="264" y="308" width="11" height="11" style="fill:rgb(0,0,0);" />
<rect x="275" y="308" width="11" height="11" style="fill:rgb(0,0,0);" />
<rect x="286" y="308" width="11" height="11" style="fill:rgb(0,0,0);" />
<rect x="297" y="308" width="11" height="11" style="fill:rgb(0,0,0);" />
<rect x="308" y="308" width="11" height="11" style="fill:rgb(0,0,0);" />
<rect x="352" y="308" width="11" height="11" style="fill:rgb(0,0,0);" />
<rect x="44" y="319" width="11" height="11" style="fill:rgb(0,0,0);" />
<rect x="66" y="319" width="11" height="11" style="fill:rgb(0,0,0);" />
<rect x="77" y="319" width="11" height="11" style="fill:rgb(0,0,0);" />
<rect x="88" y="319" width="11" height="11" style="fill:rgb(0,0,0);" />
<rect x="110" y="319" width="11" height="11" style="fill:rgb(0,0,0);" />
<rect x="132" y="319" width="11" height="11" style="fill:rgb(0,0,0);" />
<rect x="143" y="319" width="11" height="11" style="fill:rgb(0,0,0);" />
<rect x="176" y="319" width="11" height="11" style="fill:rgb(0,0,0);" />
<rect x="187" y="319" width="11" height="11" style="fill:rgb(0,0,0);" />
<rect x="198" y="319" width="11" height="11" style="fill:rgb(0,0,0);" />
<rect x="220" y="319" width="11" height="11" style="fill:rgb(0,0,0);" />
<rect x="242" y="319" width="11" height="11" style="fill:rgb(0,0,0);" />
<rect x="264" y="319" width="11" height="11" style="fill:rgb(0,0,0);" />
<rect x="275" y="319" width="11" height="11" style="fill:rgb(0,0,0);" />
<rect x="297" y="319" width="11" height="11" style="fill:rgb(0,0,0);" />
<rect x="330" y="319" width="11" height="11" style="fill:rgb(0,0,0);" />
<rect x="341" y="319" width="11" height="11" style="fill:rgb(0,0,0);" />
<rect x="44" y="330" width="11" height="11" style="fill:rgb(0,0,0);" />
<rect x="66" y="330" width="11" height="11" style="fill:rgb(0,0,0);" />
<rect x="77" y="330" width="11" height="11" style="fill:rgb(0,0,0);" />
<rect x="88" y="330" width="11" height="11" style="fill:rgb(0,0,0);" />
<rect x="110" y="330" width="11" height="11" style="fill:rgb(0,0,0);" />
<rect x="176" y="330" width="11" height="11" style="fill:rgb(0,0,0);" />
<rect x="198" y="330" width="11" height="11" style="fill:rgb(0,0,0);" />
<rect x="220" y="330" width="11" height="11" style="fill:rgb(0,0,0);" />
<rect x="242" y="330" width="11" height="11" style="fill:rgb(0,0,0);" />
<rect x="253" y="330" width="11" height="11" style="fill:rgb(0,0,0);" />
<rect x="264" y="330" width="11" height="11" style="fill:rgb(0,0,0);" />
<rect x="297" y="330" width="11" height="11" style="fill:rgb(0,0,0);" />
<rect x="308" y="330" width="11" height="11" style="fill:rgb(0,0,0);" />
<rect x="330" y="330" width="11" height="11" style="fill:rgb(0,0,0);" />
<rect x="341" y="330" width="11" height="11" style="fill:rgb(0,0,0);" />
<rect x="352" y="330" width="11" height="11" style="fill:rgb(0,0,0);" />
<rect x="44" y="341" width="11" height="11" style="fill:rgb(0,0,0);" />
<rect x="110" y="341" width="11" height="11" style="fill:rgb(0,0,0);" />
<rect x="143" y="341" width="11" height="11" style="fill:rgb(0,0,0);" />
<rect x="154" y="341" width="11" height="11" style="fill:rgb(0,0,0);" />
<rect x="165" y="341" width="11" height="11" style="fill:rgb(0,0,0);" />
<rect x="176" y="341" width="11" height="11" style="fill:rgb(0,0,0);" />
<rect x="187" y="341" width="11" height="11" style="fill:rgb(0,0,0);" />
<rect x="209" y="341" width="11" height="11" style="fill:rgb(0,0,0);" />
<rect x="253" y="341" width="11" height="11" style="fill:rgb(0,0,0);" />
<rect x="286" y="341" width="11" height="11" style="fill:rgb(0,0,0);" />
<rect x="297" y="341" width="11" height="11" style="fill:rgb(0,0,0);" />
<rect x="319" y="341" width="11" height="11" style="fill:rgb(0,0,0);" />
<rect x="330" y="341" width="11" height="11" style="fill:rgb(0,0,0);" />
<rect x="352" y="341" width="11" height="11" style="fill:rgb(0,0,0);" />
<rect x="44" y="352" width="11" height="11" style="fill:rgb(0,0,0);" />
<rect x="55" y="352" width="11" height="11" style="fill:rgb(0,0,0);" />
<rect x="66" y="352" width="11" height="11" style="fill:rgb(0,0,0);" />
<rect x="77" y="352" width="11" height="11" style="fill:rgb(0,0,0);" />
<rect x="88" y="352" width="11" height="11" style="fill:rgb(0,0,0);" />
<rect x="99" y="352" width="11" height="11" style="fill:rgb(0,0,0);" />
<rect x="110" y="352" width="11" height="11" style="fill:rgb(0,0,0);" />
<rect x="132" y="352" width="11" height="11" style="fill:rgb(0,0,0);" />
<rect x="154" y="352" width="11" height="11" style="fill:rgb(0,0,0);" />
<rect x="165" y="352" width="11" height="11" style="fill:rgb(0,0,0);" />
<rect x="176" y="352" width="11" height="11" style="fill:rgb(0,0,0);" />
<rect x="187" y="352" width="11" height="11" style="fill:rgb(0,0,0);" />
<rect x="198" y="352" width="11" height="11" style="fill:rgb(0,0,0);" />
<rect x="220" y="352" width="11" height="11" style="fill:rgb(0,0,0);" />
<rect x="231" y="352" width="11" height="11" style="fill:rgb(0,0,0);" />
<rect x="242" y="352" width="11" height="11" style="fill:rgb(0,0,0);" />
<rect x="253" y="352" width="11" height="11" style="fill:rgb(0,0,0);" />
<rect x="264" y="352" width="11" height="11" style="fill:rgb(0,0,0);" />
<rect x="286" y="352" width="11" height="11" style="fill:rgb(0,0,0);" />
<rect x="308" y="352" width="11" height="11" style="fill:rgb(0,0,0);" />
<rect x="319" y="352" width="11" height="11" style="fill:rgb(0,0,0);" />
</svg>
