<?xml version="1.0" encoding="UTF-8"?>
<!DOCTYPE svg PUBLIC "-//W3C//DTD SVG 1.1//EN" "http://www.w3.org/Graphics/SVG/1.1/DTD/svg11.dtd">
<!-- Creator: CorelDRAW X8 -->
<svg xmlns="http://www.w3.org/2000/svg" xml:space="preserve" width="1371px" height="544px" version="1.1" style="shape-rendering:geometricPrecision; text-rendering:geometricPrecision; image-rendering:optimizeQuality; fill-rule:evenodd; clip-rule:evenodd"
viewBox="0 0 698 277"
 xmlns:xlink="http://www.w3.org/1999/xlink">
 <defs>
  <style type="text/css">
   <![CDATA[
    .str0 {stroke:black;stroke-width:4.50804}
    .str1 {stroke:black;stroke-width:3.00536}
    .str2 {stroke:black;stroke-width:1.20214;stroke-dasharray:6.010722 6.010722}
    .fil0 {fill:none}
    .fil1 {fill:black;fill-rule:nonzero}
   ]]>
  </style>
 </defs>
 <g id="Слой_x0020_1">
  <metadata id="CorelCorpID_0Corel-Layer"/>
  <polyline class="fil0 str0" points="2,0 2,210 697,210 "/>
  <polyline class="fil0 str1" points="35,151 215,151 215,60 440,60 "/>
  <line class="fil0 str2" x1="35" y1="151" x2="35" y2= "279" />
  <line class="fil0 str2" x1="215" y1="151" x2="215" y2= "279" />
  <g>
   <path class="fil1" d="M45 265l0 11 -10 -5 10 -6zm161 6l-162 0 0 -1 162 0 0 1zm-1 -6l10 6 -10 5 0 -11z"/>
  </g>
  <polygon class="fil1" points="79,227 81,227 81,239 89,227 91,227 91,242 89,242 89,230 81,242 79,242 "/>
  <polygon id="1" class="fil1" points="94,231 96,231 96,235 101,235 101,231 103,231 103,242 101,242 101,237 96,237 96,242 94,242 "/>
  <polygon id="2" class="fil1" points="105,231 114,231 114,232 110,232 110,242 108,242 108,232 105,232 "/>
  <path id="3" class="fil1" d="M123 238l2 0c-1,2 -1,2 -2,3 -1,1 -2,1 -3,1 -2,0 -3,-1 -4,-2 -1,-1 -1,-2 -1,-4 0,-2 0,-3 1,-4 1,-1 2,-2 4,-2 1,0 2,1 3,2 1,1 2,2 2,4 0,0 0,0 0,1l-8 0c0,1 0,2 1,2 0,1 1,1 2,1 1,0 1,0 2,0 0,0 0,-1 1,-2zm-6 -3l6 0c0,-1 -1,-1 -1,-2 -1,-1 -1,-1 -2,-1 -1,0 -2,0 -2,1 -1,0 -1,1 -1,2z"/>
  <path id="4" class="fil1" d="M127 246l0 -15 2 0 0 1c0,0 1,-1 1,-1 1,0 1,-1 2,-1 1,0 2,1 2,1 1,1 2,1 2,2 0,1 1,2 1,3 0,1 -1,2 -1,3 0,1 -1,2 -2,2 -1,1 -1,1 -2,1 -1,0 -1,0 -2,0 0,-1 -1,-1 -1,-1l0 5 -2 0zm2 -10c0,2 0,3 1,3 0,1 1,1 2,1 0,0 1,0 2,-1 0,0 1,-1 1,-3 0,-1 -1,-2 -1,-3 -1,-1 -1,-1 -2,-1 -1,0 -2,0 -2,1 -1,1 -1,2 -1,3z"/>
  <path id="5" class="fil1" d="M139 231l4 0c1,0 2,0 2,0 1,0 1,0 2,1 0,0 0,1 0,2 0,0 0,1 0,1 0,0 -1,1 -1,1 1,0 1,1 1,1 1,0 1,1 1,2 0,1 -1,1 -1,2 -1,0 -2,1 -3,1l-5 0 0 -11zm2 4l2 0c0,0 1,0 1,0 1,0 1,0 1,0 0,-1 0,-1 0,-1 0,-1 0,-1 0,-1 -1,-1 -1,-1 -2,-1l-2 0 0 3zm0 5l2 0c1,0 2,0 2,0 1,0 1,-1 1,-1 0,-1 0,-1 0,-1 -1,-1 -1,-1 -1,-1 -1,0 -1,0 -2,0l-2 0 0 3z"/>
  <path id="6" class="fil1" d="M157 240c-1,1 -1,1 -2,2 -1,0 -1,0 -2,0 -1,0 -2,0 -3,-1 0,-1 -1,-1 -1,-2 0,-1 0,-1 1,-2 0,0 0,0 1,-1 0,0 0,0 1,0 0,0 1,-1 2,-1 1,0 2,0 3,0 0,-1 0,-1 0,-1 0,0 0,-1 -1,-1 0,-1 -1,-1 -2,-1 -1,0 -1,0 -2,1 0,0 0,0 -1,1l-1 0c0,-1 0,-2 0,-2 1,0 1,-1 2,-1 1,0 2,-1 2,-1 1,0 2,1 3,1 0,0 1,0 1,1 0,0 1,0 1,1 0,0 0,1 0,2l0 2c0,2 0,3 0,3 0,1 0,1 0,2l-2 0c0,-1 0,-1 0,-2zm0 -4c-1,0 -2,1 -3,1 -1,0 -1,0 -2,0 0,0 0,1 -1,1 0,0 0,0 0,1 0,0 0,1 1,1 0,0 1,0 1,0 1,0 2,0 2,0 1,0 1,-1 2,-1 0,-1 0,-1 0,-2l0 -1z"/>
  <path id="7" class="fil1" d="M163 231l8 0 0 11 -2 0 0 -10 -5 0 0 6c0,1 0,2 0,2 0,1 0,1 0,1 -1,1 -1,1 -2,1 0,0 -1,0 -2,0l0 -2 1 0c1,0 1,0 1,0 0,0 0,0 0,0 1,-1 1,-1 1,-2l0 -7z"/>
  <path id="8" class="fil1" d="M64 261l1 1c0,1 0,2 -1,3 -1,0 -2,1 -3,1 -2,0 -3,-1 -4,-2 -1,-1 -1,-2 -1,-4 0,-1 0,-2 0,-3 1,-1 1,-2 2,-2 1,-1 2,-1 3,-1 1,0 2,0 3,1 1,1 1,2 1,3l-2 0c0,-1 0,-1 0,-2 -1,0 -1,0 -2,0 -1,0 -2,0 -2,1 -1,0 -1,1 -1,3 0,1 0,2 1,3 0,1 1,1 2,1 1,0 1,0 2,-1 0,0 0,-1 1,-2z"/>
  <path id="9" class="fil1" d="M67 270l0 -16 2 0 0 2c0,-1 1,-1 1,-1 1,-1 1,-1 2,-1 1,0 2,0 2,1 1,0 2,1 2,2 0,1 1,2 1,3 0,1 -1,2 -1,3 0,1 -1,1 -2,2 -1,0 -1,1 -2,1 -1,0 -1,0 -2,-1 0,0 -1,0 -1,-1l0 6 -2 0zm2 -10c0,1 0,2 1,3 0,1 1,1 2,1 0,0 1,0 2,-1 0,-1 1,-2 1,-3 0,-2 -1,-3 -1,-3 -1,-1 -1,-1 -2,-1 -1,0 -2,0 -2,1 -1,0 -1,2 -1,3z"/>
  <path id="10" class="fil1" d="M86 264c-1,1 -1,1 -2,1 -1,1 -1,1 -2,1 -1,0 -2,-1 -3,-1 -1,-1 -1,-2 -1,-2 0,-1 0,-2 1,-2 0,0 0,-1 0,-1 1,0 1,-1 2,-1 0,0 1,0 1,0 2,0 3,0 4,-1 0,0 0,0 0,0 0,-1 0,-1 -1,-2 0,0 -1,0 -2,0 -1,0 -1,0 -2,0 0,0 -1,1 -1,2l-2 0c1,-1 1,-2 1,-2 1,-1 1,-1 2,-1 1,-1 2,-1 2,-1 1,0 2,0 3,1 0,0 1,0 1,0 0,1 1,1 1,2 0,0 0,1 0,1l0 3c0,2 0,3 0,3 0,1 0,1 0,1l-2 0c0,0 0,0 0,-1zm0 -4c-1,0 -2,0 -3,1 -1,0 -2,0 -2,0 0,0 0,0 -1,1 0,0 0,0 0,0 0,1 0,1 1,2 0,0 1,0 1,0 1,0 2,0 2,0 1,-1 1,-1 2,-2 0,0 0,-1 0,-1l0 -1z"/>
  <path id="11" class="fil1" d="M99 250l1 0c0,1 0,1 0,1 0,1 -1,1 -1,1 -1,0 -1,0 -3,0 -1,0 -2,0 -3,1 0,0 -1,0 -1,1 0,1 0,1 0,3 0,-1 1,-2 1,-2 1,0 2,-1 2,-1 2,0 3,1 4,2 1,1 1,2 1,4 0,1 0,2 0,3 -1,1 -1,2 -2,2 -1,0 -1,1 -3,1 -1,0 -2,-1 -3,-1 0,-1 -1,-2 -1,-3 -1,0 -1,-2 -1,-4 0,-3 1,-5 2,-6 1,-1 2,-2 4,-2 1,0 2,0 2,0 0,0 1,0 1,0zm0 10c0,-1 -1,-2 -1,-3 -1,-1 -2,-1 -3,-1 -1,0 -1,0 -2,1 -1,1 -1,2 -1,3 0,1 1,2 1,3 1,1 2,1 2,1 1,0 2,0 3,-1 0,-1 1,-2 1,-3z"/>
  <path id="12" class="fil1" d="M109 264c0,1 -1,1 -2,1 0,1 -1,1 -2,1 -1,0 -2,-1 -2,-1 -1,-1 -1,-2 -1,-2 0,-1 0,-2 0,-2 0,0 1,-1 1,-1 0,0 1,-1 1,-1 1,0 1,0 2,0 1,0 3,0 3,-1 0,0 0,0 0,0 0,-1 0,-1 0,-2 -1,0 -1,0 -2,0 -1,0 -2,0 -2,0 -1,0 -1,1 -1,2l-2 0c0,-1 0,-2 1,-2 0,-1 1,-1 1,-1 1,-1 2,-1 3,-1 1,0 2,0 2,1 1,0 1,0 1,0 1,1 1,1 1,2 0,0 0,1 0,1l0 3c0,2 0,3 0,3 0,1 1,1 1,1l-2 0c0,0 -1,0 -1,-1zm0 -4c0,0 -1,0 -3,1 -1,0 -1,0 -1,0 -1,0 -1,0 -1,1 0,0 0,0 0,0 0,1 0,1 0,2 1,0 1,0 2,0 1,0 1,0 2,0 0,-1 1,-1 1,-2 0,0 0,-1 0,-1l0 -1z"/>
  <polygon id="13" class="fil1" points="113,254 122,254 122,256 118,256 118,265 116,265 116,256 113,256 "/>
  <path id="14" class="fil1" d="M134 254l2 0 0 11 -2 0 0 -11zm-11 0l2 0 0 5 3 0c1,0 2,0 3,1 1,0 1,1 1,2 0,1 0,2 -1,2 0,1 -1,1 -3,1l-5 0 0 -11zm2 10l2 0c1,0 2,0 3,-1 0,0 0,0 0,-1 0,0 0,-1 0,-1 0,-1 -1,-1 -3,-1l-2 0 0 4z"/>
  <path id="15" class="fil1" d="M139 254l4 0c1,0 2,1 2,1 1,0 1,0 1,1 1,0 1,1 1,1 0,1 0,1 0,2 0,0 -1,0 -1,1 0,0 1,0 1,1 0,0 1,1 1,1 -1,1 -1,2 -2,3 0,0 -1,0 -3,0l-4 0 0 -11zm1 5l2 0c1,0 2,0 2,0 0,0 1,0 1,-1 0,0 0,0 0,0 0,-1 0,-1 0,-2 -1,0 -2,0 -3,0l-2 0 0 3zm0 5l3 0c1,0 2,0 2,0 0,-1 1,-1 1,-2 0,0 0,0 -1,-1 0,0 0,0 -1,0 0,0 -1,0 -1,0l-3 0 0 3z"/>
  <path id="16" class="fil1" d="M157 264c-1,1 -2,1 -2,1 -1,1 -2,1 -2,1 -2,0 -2,-1 -3,-1 -1,-1 -1,-2 -1,-2 0,-1 0,-2 0,-2 1,0 1,-1 1,-1 1,0 1,-1 2,-1 0,0 1,0 1,0 2,0 3,0 4,-1 0,0 0,0 0,0 0,-1 -1,-1 -1,-2 0,0 -1,0 -2,0 -1,0 -2,0 -2,0 0,0 -1,1 -1,2l-2 0c0,-1 1,-2 1,-2 0,-1 1,-1 2,-1 0,-1 1,-1 2,-1 1,0 2,0 3,1 0,0 1,0 1,0 0,1 0,1 0,2 0,0 0,1 0,1l0 3c0,2 1,3 1,3 0,1 0,1 0,1l-2 0c0,0 0,0 0,-1zm0 -4c-1,0 -2,0 -3,1 -1,0 -2,0 -2,0 0,0 -1,0 -1,1 0,0 0,0 0,0 0,1 0,1 0,2 1,0 1,0 2,0 1,0 1,0 2,0 1,-1 1,-1 1,-2 0,0 1,-1 1,-1l0 -1z"/>
  <polygon id="17" class="fil1" points="161,254 163,254 163,259 168,259 168,254 170,254 170,265 168,265 168,261 163,261 163,265 161,265 "/>
  <polygon id="18" class="fil1" points="173,254 175,254 175,263 180,254 182,254 182,265 180,265 180,257 175,265 173,265 "/>
  <path id="19" class="fil1" d="M194 254l0 11 -2 0 0 -4 -1 0c-1,0 -2,0 -2,0 0,1 -1,1 -1,2l-2 2 -2 0 2 -3c0,0 1,-1 2,-1 -1,0 -2,-1 -3,-1 0,-1 0,-2 0,-2 0,-1 0,-2 1,-3 0,0 1,-1 2,-1l6 0zm-2 2l-3 0c-1,0 -2,0 -2,0 0,1 -1,1 -1,2 0,0 1,1 1,1 1,0 1,1 3,1l2 0 0 -4z"/>
  <line class="fil0 str1" x1="440" y1="61" x2="440" y2= "152" />
  <line class="fil0 str1" x1="440" y1="152" x2="664" y2= "152" />
  <line class="fil0 str1" x1="664" y1="61" x2="664" y2= "152" />
  <line class="fil0 str1" x1="698" y1="61" x2="663" y2= "61" />
  <line class="fil0 str2" x1="439" y1="151" x2="439" y2= "279" />
  <g>
   <path class="fil1" d="M449 265l0 11 -10 -5 10 -6zm207 6l-208 0 0 -1 208 0 0 1zm-1 -6l10 6 -10 5 0 -11z"/>
  </g>
  <polygon class="fil1" points="506,227 508,227 508,239 516,227 518,227 518,242 516,242 516,230 508,242 506,242 "/>
  <polygon id="1" class="fil1" points="521,231 523,231 523,235 528,235 528,231 530,231 530,242 528,242 528,237 523,237 523,242 521,242 "/>
  <polygon id="2" class="fil1" points="532,231 541,231 541,232 537,232 537,242 536,242 536,232 532,232 "/>
  <path id="3" class="fil1" d="M550 238l2 0c0,2 -1,2 -2,3 -1,1 -2,1 -3,1 -2,0 -3,-1 -4,-2 -1,-1 -1,-2 -1,-4 0,-2 0,-3 1,-4 1,-1 2,-2 4,-2 1,0 3,1 4,2 1,1 1,2 1,4 0,0 0,0 0,1l-8 0c0,1 0,2 1,2 0,1 1,1 2,1 1,0 1,0 2,0 0,0 1,-1 1,-2zm-6 -3l6 0c0,-1 0,-1 -1,-2 0,-1 -1,-1 -2,-1 -1,0 -2,0 -2,1 -1,0 -1,1 -1,2z"/>
  <path id="4" class="fil1" d="M554 246l0 -15 2 0 0 1c0,0 1,-1 1,-1 1,0 1,-1 2,-1 1,0 2,1 3,1 0,1 1,1 1,2 1,1 1,2 1,3 0,1 0,2 -1,3 0,1 -1,2 -2,2 0,1 -1,1 -2,1 -1,0 -1,0 -2,0 0,-1 -1,-1 -1,-1l0 5 -2 0zm2 -10c0,2 0,3 1,3 0,1 1,1 2,1 1,0 1,0 2,-1 1,0 1,-1 1,-3 0,-1 0,-2 -1,-3 -1,-1 -1,-1 -2,-1 -1,0 -1,0 -2,1 -1,1 -1,2 -1,3z"/>
  <path id="5" class="fil1" d="M566 231l4 0c1,0 2,0 3,0 0,0 1,0 1,1 0,0 1,1 1,2 0,0 -1,1 -1,1 0,0 0,1 -1,1 1,0 1,1 2,1 0,0 0,1 0,2 0,1 0,1 -1,2 -1,0 -2,1 -3,1l-5 0 0 -11zm2 4l2 0c1,0 1,0 2,0 0,0 0,0 0,0 1,-1 1,-1 1,-1 0,-1 -1,-1 -1,-1 0,-1 -1,-1 -2,-1l-2 0 0 3zm0 5l2 0c1,0 2,0 3,0 0,0 0,-1 0,-1 0,-1 0,-1 0,-1 0,-1 -1,-1 -1,-1 0,0 -1,0 -2,0l-2 0 0 3z"/>
  <path id="6" class="fil1" d="M584 240c0,1 -1,1 -2,2 0,0 -1,0 -2,0 -1,0 -2,0 -3,-1 0,-1 -1,-1 -1,-2 0,-1 1,-1 1,-2 0,0 0,0 1,-1 0,0 1,0 1,0 1,0 1,-1 2,-1 1,0 2,0 3,0 0,-1 0,-1 0,-1 0,0 0,-1 0,-1 -1,-1 -2,-1 -3,-1 0,0 -1,0 -1,1 -1,0 -1,0 -1,1l-2 0c0,-1 0,-2 1,-2 0,0 1,-1 1,-1 1,0 2,-1 3,-1 1,0 1,1 2,1 1,0 1,0 1,1 1,0 1,0 1,1 0,0 0,1 0,2l0 2c0,2 0,3 0,3 0,1 0,1 1,2l-2 0c-1,-1 -1,-1 -1,-2zm0 -4c-1,0 -2,1 -3,1 -1,0 -1,0 -2,0 0,0 0,1 0,1 0,0 -1,0 -1,1 0,0 1,1 1,1 0,0 1,0 2,0 0,0 1,0 2,0 0,0 1,-1 1,-1 0,-1 0,-1 0,-2l0 -1z"/>
  <path id="7" class="fil1" d="M590 231l8 0 0 11 -1 0 0 -10 -5 0 0 6c0,1 0,2 0,2 -1,1 -1,1 -1,1 -1,1 -1,1 -2,1 0,0 -1,0 -1,0l0 -2 1 0c0,0 0,0 0,0 1,0 1,0 1,0 0,-1 0,-1 0,-2l0 -7z"/>
  <path id="8" class="fil1" d="M491 261l2 1c-1,1 -1,2 -2,3 -1,0 -2,1 -3,1 -1,0 -3,-1 -4,-2 0,-1 -1,-2 -1,-4 0,-1 0,-2 1,-3 0,-1 1,-2 2,-2 0,-1 1,-1 2,-1 1,0 2,0 3,1 1,1 1,2 2,3l-2 0c0,-1 -1,-1 -1,-2 -1,0 -1,0 -2,0 -1,0 -1,0 -2,1 -1,0 -1,1 -1,3 0,1 0,2 1,3 0,1 1,1 2,1 1,0 1,0 2,-1 0,0 1,-1 1,-2z"/>
  <path id="9" class="fil1" d="M494 270l0 -16 2 0 0 2c0,-1 1,-1 1,-1 1,-1 1,-1 2,-1 1,0 2,0 3,1 0,0 1,1 1,2 1,1 1,2 1,3 0,1 0,2 -1,3 0,1 -1,1 -2,2 0,0 -1,1 -2,1 -1,0 -1,0 -2,-1 0,0 -1,0 -1,-1l0 6 -2 0zm2 -10c0,1 0,2 1,3 0,1 1,1 2,1 1,0 1,0 2,-1 1,-1 1,-2 1,-3 0,-2 0,-3 -1,-3 -1,-1 -1,-1 -2,-1 -1,0 -2,0 -2,1 -1,0 -1,2 -1,3z"/>
  <path id="10" class="fil1" d="M513 264c0,1 -1,1 -2,1 0,1 -1,1 -2,1 -1,0 -2,-1 -3,-1 0,-1 -1,-2 -1,-2 0,-1 1,-2 1,-2 0,0 0,-1 1,-1 0,0 1,-1 1,-1 0,0 1,0 2,0 1,0 2,0 3,-1 0,0 0,0 0,0 0,-1 0,-1 0,-2 -1,0 -2,0 -3,0 0,0 -1,0 -1,0 -1,0 -1,1 -1,2l-2 0c0,-1 0,-2 1,-2 0,-1 1,-1 1,-1 1,-1 2,-1 3,-1 1,0 1,0 2,1 1,0 1,0 1,0 1,1 1,1 1,2 0,0 0,1 0,1l0 3c0,2 0,3 0,3 0,1 0,1 1,1l-2 0c-1,0 -1,0 -1,-1zm0 -4c-1,0 -2,0 -3,1 -1,0 -1,0 -2,0 0,0 0,0 0,1 0,0 -1,0 -1,0 0,1 1,1 1,2 0,0 1,0 2,0 0,0 1,0 2,0 0,-1 1,-1 1,-2 0,0 0,-1 0,-1l0 -1z"/>
  <path id="11" class="fil1" d="M526 250l2 0c-1,1 -1,1 -1,1 0,1 -1,1 -1,1 0,0 -1,0 -2,0 -2,0 -3,0 -3,1 -1,0 -1,0 -2,1 0,1 0,1 0,3 0,-1 1,-2 2,-2 0,0 1,-1 2,-1 1,0 2,1 3,2 1,1 2,2 2,4 0,1 0,2 -1,3 0,1 -1,2 -2,2 0,0 -1,1 -2,1 -2,0 -3,-1 -3,-1 -1,-1 -2,-2 -2,-3 0,0 -1,-2 -1,-4 0,-3 1,-5 2,-6 1,-1 2,-2 4,-2 2,0 2,0 3,0 0,0 0,0 0,0zm0 10c0,-1 0,-2 -1,-3 -1,-1 -1,-1 -2,-1 -1,0 -2,0 -3,1 0,1 -1,2 -1,3 0,1 1,2 1,3 1,1 2,1 3,1 1,0 1,0 2,-1 1,-1 1,-2 1,-3z"/>
  <path id="12" class="fil1" d="M537 264c-1,1 -2,1 -2,1 -1,1 -2,1 -2,1 -2,0 -2,-1 -3,-1 -1,-1 -1,-2 -1,-2 0,-1 0,-2 0,-2 1,0 1,-1 1,-1 1,0 1,-1 2,-1 0,0 0,0 1,0 2,0 3,0 4,-1 0,0 0,0 0,0 0,-1 -1,-1 -1,-2 0,0 -1,0 -2,0 -1,0 -2,0 -2,0 0,0 -1,1 -1,2l-2 0c0,-1 1,-2 1,-2 0,-1 1,-1 2,-1 0,-1 1,-1 2,-1 1,0 2,0 2,1 1,0 1,0 2,0 0,1 0,1 0,2 0,0 0,1 0,1l0 3c0,2 0,3 1,3 0,1 0,1 0,1l-2 0c0,0 0,0 0,-1zm0 -4c-1,0 -2,0 -3,1 -1,0 -2,0 -2,0 0,0 -1,0 -1,1 0,0 0,0 0,0 0,1 0,1 0,2 1,0 1,0 2,0 1,0 1,0 2,0 1,-1 1,-1 1,-2 0,0 1,-1 1,-1l0 -1z"/>
  <polygon id="13" class="fil1" points="540,254 549,254 549,256 545,256 545,265 543,265 543,256 540,256 "/>
  <path id="14" class="fil1" d="M561 254l2 0 0 11 -2 0 0 -11zm-10 0l1 0 0 5 3 0c1,0 3,0 3,1 1,0 2,1 2,2 0,1 -1,2 -1,2 -1,1 -2,1 -4,1l-4 0 0 -11zm1 10l2 0c2,0 2,0 3,-1 0,0 1,0 1,-1 0,0 0,-1 -1,-1 0,-1 -1,-1 -2,-1l-3 0 0 4z"/>
  <path id="15" class="fil1" d="M566 254l4 0c1,0 2,1 2,1 1,0 1,0 2,1 0,0 0,1 0,1 0,1 0,1 0,2 0,0 -1,0 -1,1 1,0 1,0 1,1 1,0 1,1 1,1 0,1 -1,2 -1,3 -1,0 -2,0 -3,0l-5 0 0 -11zm2 5l2 0c0,0 1,0 1,0 1,0 1,0 1,-1 0,0 0,0 0,0 0,-1 0,-1 0,-2 -1,0 -1,0 -2,0l-2 0 0 3zm0 5l2 0c1,0 2,0 2,0 1,-1 1,-1 1,-2 0,0 0,0 0,-1 -1,0 -1,0 -1,0 -1,0 -1,0 -2,0l-2 0 0 3z"/>
  <path id="16" class="fil1" d="M584 264c-1,1 -1,1 -2,1 -1,1 -1,1 -2,1 -1,0 -2,-1 -3,-1 0,-1 -1,-2 -1,-2 0,-1 0,-2 1,-2 0,0 0,-1 1,-1 0,0 0,-1 1,-1 0,0 1,0 2,0 1,0 2,0 3,-1 0,0 0,0 0,0 0,-1 0,-1 -1,-2 0,0 -1,0 -2,0 -1,0 -1,0 -2,0 0,0 0,1 -1,2l-1 0c0,-1 0,-2 0,-2 1,-1 1,-1 2,-1 1,-1 2,-1 2,-1 1,0 2,0 3,1 0,0 1,0 1,0 0,1 1,1 1,2 0,0 0,1 0,1l0 3c0,2 0,3 0,3 0,1 0,1 0,1l-2 0c0,0 0,0 0,-1zm0 -4c-1,0 -2,0 -3,1 -1,0 -1,0 -2,0 0,0 0,0 -1,1 0,0 0,0 0,0 0,1 0,1 1,2 0,0 1,0 1,0 1,0 2,0 2,0 1,-1 1,-1 2,-2 0,0 0,-1 0,-1l0 -1z"/>
  <polygon id="17" class="fil1" points="589,254 590,254 590,259 596,259 596,254 598,254 598,265 596,265 596,261 590,261 590,265 589,265 "/>
  <polygon id="18" class="fil1" points="600,254 602,254 602,263 607,254 609,254 609,265 608,265 608,257 602,265 600,265 "/>
  <path id="19" class="fil1" d="M621 254l0 11 -2 0 0 -4 -1 0c-1,0 -1,0 -2,0 0,1 0,1 -1,2l-2 2 -2 0 2 -3c1,0 1,-1 2,-1 -1,0 -2,-1 -2,-1 -1,-1 -1,-2 -1,-2 0,-1 0,-2 1,-3 0,0 1,-1 3,-1l5 0zm-2 2l-3 0c-1,0 -1,0 -2,0 0,1 0,1 0,2 0,0 0,1 0,1 1,0 2,1 3,1l2 0 0 -4z"/>
  <line class="fil0 str2" x1="665" y1="151" x2="665" y2= "279" />
  <polygon class="fil1" points="357,8 369,8 369,24 367,24 367,10 359,10 359,24 357,24 "/>
  <path id="1" class="fil1" d="M380 20l2 0c-1,1 -1,2 -2,3 -1,1 -2,1 -3,1 -2,0 -3,-1 -4,-2 -1,-1 -1,-2 -1,-4 0,-2 0,-3 1,-4 1,-1 2,-2 4,-2 1,0 2,1 3,2 1,1 2,2 2,4 0,0 0,0 0,1l-9 0c0,1 1,2 1,2 1,1 2,1 3,1 0,0 1,0 1,0 1,-1 1,-1 2,-2zm-6 -3l6 0c0,-1 -1,-2 -1,-2 -1,-1 -1,-1 -2,-1 -1,0 -2,0 -3,1 0,0 0,1 0,2z"/>
  <path id="2" class="fil1" d="M384 28l0 -15 2 0 0 1c0,0 0,-1 1,-1 0,0 1,-1 2,-1 1,0 2,1 2,1 1,1 2,1 2,2 0,1 0,2 0,3 0,1 0,2 0,3 -1,1 -1,2 -2,2 -1,1 -1,1 -2,1 -1,0 -1,0 -2,-1 0,0 -1,0 -1,0l0 5 -2 0zm2 -10c0,2 0,3 0,3 1,1 2,1 3,1 0,0 1,0 2,-1 0,0 1,-1 1,-3 0,-1 -1,-2 -1,-3 -1,-1 -2,-1 -2,-1 -1,0 -2,0 -2,1 -1,1 -1,2 -1,3z"/>
  <path id="3" class="fil1" d="M403 20l2 0c0,1 -1,2 -2,3 0,1 -1,1 -3,1 -1,0 -3,-1 -3,-2 -1,-1 -2,-2 -2,-4 0,-2 1,-3 2,-4 0,-1 2,-2 3,-2 2,0 3,1 4,2 1,1 1,2 1,4 0,0 0,0 0,1l-8 0c0,1 0,2 1,2 1,1 1,1 2,1 1,0 2,0 2,0 1,-1 1,-1 1,-2zm-6 -3l6 0c0,-1 0,-2 0,-2 -1,-1 -2,-1 -3,-1 -1,0 -1,0 -2,1 0,0 -1,1 -1,2z"/>
  <path id="4" class="fil1" d="M409 19l0 -2c1,0 2,0 2,0 0,0 1,0 1,0 0,-1 0,-1 0,-1 0,-1 0,-1 0,-2 -1,0 -1,0 -2,0 -1,0 -1,1 -2,2l-2 -1c1,-2 2,-3 4,-3 2,0 3,1 3,1 1,1 1,2 1,3 0,1 0,1 -1,2 1,0 1,0 1,1 0,0 1,1 1,2 0,1 -1,1 -1,2 -1,1 -2,1 -3,1 -3,0 -4,-1 -5,-3l2 -1c0,1 0,1 1,2 0,0 1,0 2,0 0,0 1,0 1,0 1,-1 1,-1 1,-2 0,0 0,0 -1,-1 0,0 0,0 0,0 -1,0 -1,0 -2,0 0,0 0,0 -1,0z"/>
  <path id="5" class="fil1" d="M424 22c-1,1 -1,1 -2,2 -1,0 -1,0 -2,0 -1,0 -2,0 -3,-1 -1,-1 -1,-1 -1,-2 0,-1 0,-1 1,-2 0,0 0,-1 0,-1 1,0 1,0 2,0 0,0 1,-1 1,-1 2,0 3,0 4,0 0,-1 0,-1 0,-1 0,-1 0,-1 -1,-1 0,-1 -1,-1 -2,-1 -1,0 -1,0 -2,0 0,1 -1,1 -1,2l-2 0c1,-1 1,-2 1,-2 1,-1 1,-1 2,-1 1,0 1,-1 2,-1 1,0 2,1 3,1 0,0 1,0 1,1 0,0 0,0 1,1 0,0 0,1 0,2l0 2c0,2 0,3 0,3 0,1 0,1 0,2l-2 0c0,-1 0,-1 0,-2zm0 -4c-1,0 -2,1 -3,1 -1,0 -2,0 -2,0 0,0 0,1 -1,1 0,0 0,0 0,1 0,0 0,1 1,1 0,0 1,0 1,0 1,0 2,0 2,0 1,0 1,-1 1,-1 1,-1 1,-1 1,-2l0 -1z"/>
  <polygon id="6" class="fil1" points="429,13 437,13 437,24 435,24 435,14 430,14 430,24 429,24 "/>
  <path id="7" class="fil1" d="M440 28l0 -2c0,0 1,0 1,0 0,0 1,0 1,0 0,0 0,0 0,0 1,-1 1,-1 1,-2 0,0 0,0 0,0l-4 -11 2 0 2 6c1,1 1,2 1,3 0,-1 1,-2 1,-3l2 -6 2 0 -4 11c-1,1 -1,2 -1,2 0,1 -1,1 -1,2 -1,0 -1,0 -2,0 0,0 -1,0 -1,0z"/>
  <path id="8" class="fil1" d="M458 20l1 0c0,1 0,2 -1,3 -1,1 -2,1 -3,1 -2,0 -3,-1 -4,-2 -1,-1 -1,-2 -1,-4 0,-1 0,-2 0,-3 1,-1 1,-1 2,-2 1,0 2,-1 3,-1 1,0 2,1 3,1 1,1 1,2 1,3l-2 0c0,-1 0,-1 0,-1 -1,-1 -1,-1 -2,-1 -1,0 -2,0 -2,1 -1,1 -1,2 -1,3 0,2 0,3 1,3 0,1 1,1 2,1 1,0 1,0 2,0 0,-1 0,-1 1,-2z"/>
  <path id="9" class="fil1" d="M461 13l2 0 0 4c0,0 1,0 1,0 0,0 1,-1 1,-2 1,-1 1,-1 1,-2 0,0 1,0 1,0 0,0 1,0 1,0l1 0 0 1 -1 0c0,0 -1,0 -1,0 0,1 0,1 0,2 -1,0 -1,1 -1,1 0,1 -1,1 -1,1 0,0 1,1 2,2l2 4 -2 0 -2 -4c0,0 -1,-1 -1,-1 0,0 -1,0 -1,0l0 5 -2 0 0 -11z"/>
  <g>
   <path class="fil1" d="M434 53l-16 -25 1 0 16 25 -1 0zm5 -4l1 12 -11 -6 10 -6z"/>
  </g>
 </g>
</svg>
