<?xml version="1.0" encoding="UTF-8"?>
<!DOCTYPE svg PUBLIC "-//W3C//DTD SVG 1.1//EN" "http://www.w3.org/Graphics/SVG/1.1/DTD/svg11.dtd">
<!-- Creator: CorelDRAW X8 -->
<svg xmlns="http://www.w3.org/2000/svg" xml:space="preserve" width="1371px" height="535px" version="1.1" style="shape-rendering:geometricPrecision; text-rendering:geometricPrecision; image-rendering:optimizeQuality; fill-rule:evenodd; clip-rule:evenodd"
viewBox="0 0 698 272"
 xmlns:xlink="http://www.w3.org/1999/xlink">
 <defs>
  <style type="text/css">
   <![CDATA[
    .str0 {stroke:black;stroke-width:4.50804}
    .str1 {stroke:black;stroke-width:3.00536}
    .str2 {stroke:black;stroke-width:1.20214;stroke-dasharray:6.010722 6.010722}
    .fil0 {fill:none}
    .fil1 {fill:black;fill-rule:nonzero}
   ]]>
  </style>
 </defs>
 <g id="Слой_x0020_1">
  <metadata id="CorelCorpID_0Corel-Layer"/>
  <polyline class="fil0 str0" points="2,0 2,210 697,210 "/>
  <polyline class="fil0 str1" points="33,148 125,148 125,57 217,57 "/>
  <polyline class="fil0 str1" points="216,148 308,148 308,57 400,57 "/>
  <line class="fil0 str1" x1="217" y1="56" x2="217" y2= "147" />
  <line class="fil0 str1" x1="399" y1="56" x2="399" y2= "147" />
  <polyline class="fil0 str1" points="397,148 490,148 490,57 581,57 "/>
  <line class="fil0 str1" x1="582" y1="56" x2="582" y2= "147" />
  <line class="fil0 str1" x1="670" y1="147" x2="581" y2= "147" />
  <line class="fil0 str2" x1="218" y1="146" x2="218" y2= "274" />
  <line class="fil0 str2" x1="398" y1="146" x2="398" y2= "274" />
  <g>
   <path class="fil1" d="M228 261l0 11 -10 -6 10 -5zm161 6l-162 0 0 -1 162 0 0 1zm-1 -6l10 5 -10 6 0 -11z"/>
  </g>
  <polygon class="fil1" points="272,242 284,242 284,257 282,257 282,244 274,244 274,257 272,257 "/>
  <path id="1" class="fil1" d="M295 254l2 0c0,1 -1,2 -2,2 -1,1 -2,1 -3,1 -2,0 -3,0 -4,-1 -1,-1 -1,-2 -1,-4 0,-2 0,-4 1,-5 1,-1 2,-1 4,-1 1,0 3,0 4,1 0,1 1,3 1,5 0,0 0,0 0,0l-8 0c0,1 0,2 1,3 0,1 1,1 2,1 1,0 1,0 2,-1 0,0 1,-1 1,-1zm-6 -3l6 0c0,-1 0,-2 -1,-2 0,-1 -1,-2 -2,-2 -1,0 -2,1 -2,1 -1,1 -1,2 -1,3z"/>
  <path id="2" class="fil1" d="M299 261l0 -15 2 0 0 2c0,-1 1,-1 1,-2 1,0 1,0 2,0 1,0 2,0 3,1 0,0 1,1 1,2 1,1 1,2 1,3 0,1 0,2 -1,3 0,0 -1,1 -2,2 0,0 -1,0 -2,0 -1,0 -1,0 -2,0 0,0 -1,-1 -1,-1l0 5 -2 0zm2 -9c0,1 0,2 1,3 0,1 1,1 2,1 1,0 1,0 2,-1 1,-1 1,-2 1,-3 0,-2 0,-3 -1,-4 -1,0 -1,-1 -2,-1 -1,0 -2,1 -2,1 -1,1 -1,2 -1,4z"/>
  <polygon id="3" class="fil1" points="311,246 313,246 313,255 318,246 320,246 320,257 318,257 318,249 313,257 311,257 "/>
  <path id="4" class="fil1" d="M322 252c0,-2 1,-4 2,-5 1,-1 2,-1 3,-1 2,0 3,0 4,1 1,1 1,3 1,4 0,2 0,3 0,4 -1,1 -1,1 -2,2 -1,0 -2,0 -3,0 -1,0 -2,0 -3,-1 -1,-1 -2,-2 -2,-4zm2 0c0,1 0,2 1,3 1,1 1,1 2,1 1,0 2,0 3,-1 0,-1 1,-2 1,-3 0,-2 -1,-3 -1,-3 -1,-1 -2,-2 -3,-2 -1,0 -1,1 -2,2 -1,0 -1,1 -1,3z"/>
  <path id="5" class="fil1" d="M336 246l7 0 0 10 1 0 0 4 -1 0 0 -3 -9 0 0 3 -1 0 0 -4 1 0c1,-2 2,-5 2,-10zm1 2c0,3 -1,6 -1,8l5 0 0 -8 -4 0z"/>
  <line class="fil0 str1" x1="671" y1="56" x2="671" y2= "147" />
  <line class="fil0 str1" x1="698" y1="57" x2="671" y2= "57" />
 </g>
</svg>
